<svg width="37" height="37" viewBox="0 0 37 37" fill="none" xmlns="http://www.w3.org/2000/svg">
<g clip-path="url(#clip0_1548_2)">
<mask id="mask0_1548_2" style="mask-type:luminance" maskUnits="userSpaceOnUse" x="0" y="0" width="37" height="37">
<path d="M37 0H0V37H37V0Z" fill="white"/>
</mask>
<g mask="url(#mask0_1548_2)">
<mask id="mask1_1548_2" style="mask-type:alpha" maskUnits="userSpaceOnUse" x="0" y="0" width="37" height="37">
<path d="M36.1904 0.604736H0.164062V36.6311H36.1904V0.604736Z" fill="#D9D9D9"/>
</mask>
<g mask="url(#mask1_1548_2)">
<path d="M18.1772 36.6311C28.1256 36.6311 36.1904 28.5663 36.1904 18.6179C36.1904 8.6695 28.1256 0.604736 18.1772 0.604736C8.22883 0.604736 0.164062 8.6695 0.164062 18.6179C0.164062 28.5663 8.22883 36.6311 18.1772 36.6311Z" fill="black"/>
<path d="M13.6456 14.0625V18.1789H12.3064V14.0625L8.41553 8.11346H10.0085L13.0253 12.9065L15.9717 8.11346H17.4942L13.6456 14.0625ZM17.1666 16.6141H18.7314V18.1789H17.1666V16.6141ZM26.5599 15.6696C26.5599 16.0079 26.5082 16.3416 26.4048 16.6705C26.3108 16.9994 26.1464 17.2955 25.9114 17.5586C25.6858 17.8124 25.3804 18.0191 24.9951 18.1789C24.6191 18.3293 24.1492 18.4045 23.5853 18.4045C22.6455 18.4045 21.9219 18.1601 21.4144 17.6714C20.9069 17.1733 20.6531 16.4449 20.6531 15.4863V14.866H21.9924V15.289C21.9924 15.5803 22.0159 15.8482 22.0628 16.0925C22.1098 16.3369 22.1897 16.5483 22.3025 16.7269C22.4247 16.9055 22.5891 17.0464 22.7959 17.1498C23.0121 17.2438 23.2846 17.2908 23.6135 17.2908C24.2244 17.2908 24.6426 17.1263 24.8682 16.7974C25.1032 16.4684 25.2206 16.0267 25.2206 15.4722V8.11346H26.5599V15.6696Z" fill="white"/>
<mask id="mask2_1548_2" style="mask-type:alpha" maskUnits="userSpaceOnUse" x="6" y="8" width="24" height="24">
<path d="M28.4688 19.7344C28.4688 25.6628 23.6629 30.4688 17.7344 30.4688C11.806 30.4688 7 25.6628 7 19.7344C7 13.8059 11.806 8.99997 17.7344 8.99997C23.6629 8.99997 28.4688 13.8059 28.4688 19.7344Z" stroke="white" stroke-width="1.6"/>
</mask>
<g mask="url(#mask2_1548_2)">
<path d="M29.1996 21.5946H6.26953V44.5247H29.1996V21.5946Z" fill="white"/>
<path d="M18.7085 18.8556L16.1401 20.2499" stroke="white" stroke-width="1.6"/>
<path d="M18.7085 18.8556L16.1401 20.2499" stroke="white" stroke-width="1.6"/>
</g>
</g>
<path d="M4.70288 22.2572L9.70288 20.2572" stroke="white" stroke-width="1.6"/>
<path d="M31.2971 22.2572L26.2971 20.2572" stroke="white" stroke-width="1.6"/>
</g>
</g>
<defs>
<clipPath id="clip0_1548_2">
<rect width="37" height="37" fill="white"/>
</clipPath>
</defs>
</svg>
