<svg width="51" height="51" viewBox="0 0 51 51" fill="none" xmlns="http://www.w3.org/2000/svg">
<path d="M25.2088 34.2491C30.1756 34.2491 34.202 30.2244 34.202 25.2598C34.202 20.2951 30.1756 16.2705 25.2088 16.2705C20.242 16.2705 16.2156 20.2951 16.2156 25.2598C16.2156 30.2244 20.242 34.2491 25.2088 34.2491Z" fill="#FF4102"/>
<path d="M48.1288 30.2504C49.1049 29.2904 49.7793 28.0665 50.0695 26.7289C50.3596 25.3913 50.2528 23.9981 49.7622 22.7202C49.2715 21.4424 48.4184 20.3355 47.3074 19.5354C46.1965 18.7353 44.876 18.2767 43.5081 18.216C43.4049 18.2115 43.3052 18.1776 43.2206 18.1184C43.1361 18.0591 43.0702 17.977 43.0308 17.8816C42.9917 17.7859 42.9807 17.6811 42.9992 17.5794C43.0176 17.4778 43.0647 17.3835 43.135 17.3076C44.0508 16.2955 44.6538 15.04 44.8712 13.6927C45.0885 12.3454 44.9108 10.964 44.3596 9.71545C43.8084 8.46691 42.9073 7.40464 41.7651 6.657C40.6229 5.90936 39.2886 5.50834 37.9233 5.5024H37.8973C36.1452 5.50211 34.4569 6.15894 33.166 7.34303C33.0901 7.41344 32.9955 7.46065 32.8936 7.47911C32.7917 7.49757 32.6866 7.48649 32.5908 7.4472C32.4953 7.40763 32.4131 7.34178 32.3537 7.25732C32.2943 7.17285 32.2601 7.07325 32.2552 6.97011C32.1756 5.15556 31.3984 3.44173 30.0857 2.18586C28.7729 0.929996 27.026 0.229004 25.2089 0.229004C23.3918 0.229004 21.6448 0.929996 20.3321 2.18586C19.0193 3.44173 18.2422 5.15556 18.1625 6.97011C18.158 7.07323 18.1242 7.17291 18.0649 7.25744C18.0056 7.34196 17.9235 7.4078 17.828 7.4472C17.7322 7.48649 17.6271 7.49757 17.5252 7.47911C17.4232 7.46065 17.3287 7.41344 17.2528 7.34303C15.9613 6.15695 14.2711 5.49924 12.5173 5.50032H12.4955C11.1316 5.50985 9.79963 5.91309 8.65969 6.66151C7.51975 7.40993 6.62044 8.47164 6.06997 9.71892C5.51949 10.9662 5.3413 12.3459 5.55682 13.692C5.77235 15.0381 6.37242 16.2933 7.28483 17.3066C7.35507 17.3824 7.40219 17.4767 7.42065 17.5784C7.43911 17.6801 7.42815 17.7849 7.38905 17.8806C7.34963 17.9759 7.28376 18.0581 7.1992 18.1173C7.11465 18.1766 7.01491 18.2104 6.91175 18.2149C5.10755 18.3106 3.40877 19.0943 2.1655 20.4047C0.922224 21.7151 0.229179 23.4522 0.229179 25.2582C0.229179 27.0641 0.922224 28.8013 2.1655 30.1116C3.40877 31.422 5.10755 32.2058 6.91175 32.3014C7.01505 32.3065 7.11478 32.3408 7.19929 32.4003C7.28381 32.4599 7.34962 32.5423 7.38905 32.6379C7.42823 32.7337 7.43924 32.8387 7.42078 32.9406C7.40232 33.0424 7.35516 33.1369 7.28483 33.2129C6.36603 34.222 5.76062 35.4764 5.54234 36.8233C5.32405 38.1702 5.50231 39.5515 6.0554 40.7989C6.60849 42.0464 7.51255 43.1061 8.65746 43.8491C9.80238 44.5922 11.1387 44.9864 12.5038 44.9837H12.5299C14.2741 44.9885 15.9577 44.3443 17.2528 43.1764C17.3286 43.1062 17.423 43.0591 17.5247 43.0407C17.6264 43.0222 17.7313 43.0332 17.827 43.0723C17.9224 43.1117 18.0046 43.1775 18.0639 43.262C18.1231 43.3466 18.157 43.4462 18.1615 43.5494C18.2572 45.3528 19.0413 47.0508 20.3522 48.2935C21.6632 49.5363 23.4011 50.229 25.2078 50.229C27.0146 50.229 28.7525 49.5363 30.0634 48.2935C31.3744 47.0508 32.1585 45.3528 32.2542 43.5494C32.2591 43.4462 32.2933 43.3466 32.3527 43.2621C32.4121 43.1777 32.4943 43.1118 32.5897 43.0723C32.6854 43.0332 32.7903 43.0222 32.892 43.0407C32.9937 43.0591 33.0881 43.1062 33.1639 43.1764C34.4571 44.3462 36.1396 44.9931 37.8837 44.991H37.9098C39.276 44.9964 40.6143 44.6039 41.7609 43.8613C42.9076 43.1188 43.8131 42.0585 44.3666 40.81C44.9202 39.5614 45.098 38.1787 44.8781 36.8309C44.6583 35.483 44.0504 34.2283 43.1287 33.2202C43.0584 33.1442 43.0112 33.0497 42.9928 32.9478C42.9743 32.846 42.9853 32.741 43.0245 32.6452C43.0641 32.5498 43.13 32.4676 43.2145 32.4082C43.299 32.3489 43.3986 32.3147 43.5018 32.3097C45.2469 32.2234 46.897 31.489 48.1288 30.2504ZM25.2094 33.5931C23.5605 33.5931 21.9486 33.1043 20.5776 32.1887C19.2066 31.273 18.138 29.9715 17.507 28.4488C16.876 26.926 16.7109 25.2505 17.0326 23.634C17.3543 22.0175 18.1483 20.5326 19.3142 19.3672C20.4802 18.2017 21.9657 17.408 23.5829 17.0865C25.2001 16.765 26.8764 16.93 28.3998 17.5607C29.9232 18.1915 31.2253 19.2596 32.1413 20.63C33.0574 22.0004 33.5464 23.6116 33.5464 25.2597C33.5439 27.4691 32.6647 29.5873 31.1018 31.1496C29.5388 32.7118 27.4197 33.5906 25.2094 33.5931Z" fill="#FF4102"/>
<line x1="25.0433" y1="6.229" x2="25.0433" y2="44.229" stroke="black" stroke-width="2"/>
<line x1="38.6964" y1="11.8189" x2="11.8263" y2="38.689" stroke="black" stroke-width="2"/>
<line x1="44.2082" y1="25.5469" x2="6.20818" y2="25.5469" stroke="black" stroke-width="2"/>
<line x1="38.1647" y1="38.4107" x2="11.2947" y2="11.5407" stroke="black" stroke-width="2"/>
</svg>
