<svg width="233" height="96" viewBox="0 0 233 96" fill="none" xmlns="http://www.w3.org/2000/svg">
<rect x="3.37305" y="3.2085" width="226" height="90" fill="white" stroke="black" stroke-width="2"/>
<path d="M85.0088 39.5327H96.3369V42.1938H88.1826V47.0278H95.5557V49.689H88.1826V57.2085H85.0088V39.5327ZM97.626 43.9517H100.751V57.2085H97.626V43.9517ZM99.2129 42.0718C98.8955 42.0718 98.5944 41.9985 98.3096 41.8521C98.0329 41.6974 97.8132 41.4899 97.6504 41.2295C97.4876 40.9609 97.4062 40.672 97.4062 40.3628C97.4062 40.0617 97.4876 39.7809 97.6504 39.5205C97.8132 39.2601 98.0329 39.0566 98.3096 38.9102C98.5944 38.7555 98.8955 38.6782 99.2129 38.6782C99.5384 38.6782 99.8395 38.7555 100.116 38.9102C100.393 39.0566 100.613 39.2601 100.775 39.5205C100.938 39.7809 101.02 40.0617 101.02 40.3628C101.02 40.672 100.938 40.9609 100.775 41.2295C100.613 41.4899 100.393 41.6974 100.116 41.8521C99.8395 41.9985 99.5384 42.0718 99.2129 42.0718ZM108.266 62.4575C107.102 62.4575 106.085 62.2907 105.214 61.957C104.351 61.6315 103.668 61.1636 103.163 60.5532C102.667 59.951 102.382 59.2349 102.309 58.4048H105.409C105.515 58.9663 105.82 59.3895 106.325 59.6743C106.837 59.9673 107.501 60.1138 108.314 60.1138C109.283 60.1138 110.036 59.89 110.573 59.4424C111.118 58.9948 111.391 58.299 111.391 57.355V54.8159H111.244C110.935 55.4263 110.475 55.9471 109.865 56.3784C109.263 56.8016 108.445 57.0132 107.411 57.0132C106.378 57.0132 105.446 56.765 104.616 56.2686C103.786 55.764 103.131 55.0234 102.65 54.0469C102.178 53.0622 101.942 51.87 101.942 50.4702C101.942 49.0542 102.182 47.8457 102.663 46.8447C103.143 45.8356 103.798 45.0747 104.628 44.562C105.458 44.0412 106.394 43.7808 107.436 43.7808C108.469 43.7808 109.279 44.0086 109.865 44.4644C110.451 44.9201 110.91 45.4735 111.244 46.1245H111.391V43.9517H114.467V57.4282C114.467 58.5269 114.202 59.4505 113.673 60.1992C113.153 60.9561 112.424 61.5216 111.488 61.896C110.561 62.2703 109.486 62.4575 108.266 62.4575ZM108.266 54.5718C109.267 54.5718 110.04 54.2178 110.585 53.5098C111.138 52.7936 111.415 51.7967 111.415 50.519C111.415 49.6808 111.293 48.9443 111.049 48.3096C110.805 47.6748 110.447 47.1865 109.975 46.8447C109.503 46.4948 108.933 46.3198 108.266 46.3198C107.59 46.3198 107.016 46.4989 106.544 46.8569C106.072 47.215 105.714 47.7114 105.47 48.3462C105.234 48.981 105.116 49.7052 105.116 50.519C105.116 51.7642 105.389 52.7529 105.934 53.4854C106.479 54.2096 107.257 54.5718 108.266 54.5718ZM116.195 43.9517H119.174V46.1978H119.345C119.613 45.4409 120.065 44.8509 120.7 44.4277C121.343 43.9964 122.104 43.7808 122.982 43.7808C123.878 43.7808 124.634 43.9924 125.253 44.4155C125.871 44.8387 126.311 45.4328 126.571 46.1978H126.718C127.011 45.4572 127.507 44.8713 128.207 44.4399C128.915 44.0005 129.745 43.7808 130.697 43.7808C131.511 43.7808 132.227 43.9557 132.846 44.3057C133.472 44.6475 133.957 45.1602 134.298 45.8438C134.648 46.5192 134.823 47.3371 134.823 48.2974V57.2085H131.723V48.7856C131.723 47.9963 131.511 47.4022 131.088 47.0034C130.673 46.5965 130.128 46.3931 129.452 46.3931C128.695 46.3931 128.101 46.6291 127.67 47.1011C127.247 47.5649 127.035 48.1753 127.035 48.9321V57.2085H124.008V48.6636C124.008 48.216 123.91 47.8213 123.715 47.4795C123.528 47.1296 123.263 46.861 122.921 46.6738C122.588 46.4867 122.201 46.3931 121.762 46.3931C121.314 46.3931 120.903 46.5111 120.529 46.7471C120.163 46.9749 119.87 47.3005 119.65 47.7236C119.43 48.1387 119.32 48.6147 119.32 49.1519V57.2085H116.195V43.9517ZM135.941 53.4731C135.941 52.106 136.401 51.1213 137.321 50.519C138.249 49.9087 139.433 49.5588 140.873 49.4692C142.281 49.3716 143.412 49.3065 144.267 49.2739V48.2241C144.267 47.5649 144.059 47.0563 143.644 46.6982C143.229 46.332 142.639 46.1489 141.874 46.1489C141.199 46.1489 140.645 46.2913 140.214 46.5762C139.783 46.861 139.506 47.2476 139.384 47.7358H136.381C136.454 46.979 136.723 46.3035 137.187 45.7095C137.65 45.1073 138.289 44.6353 139.103 44.2935C139.917 43.9517 140.865 43.7808 141.947 43.7808C142.875 43.7808 143.746 43.9272 144.56 44.2202C145.382 44.505 146.053 44.9893 146.574 45.6729C147.103 46.3483 147.367 47.2394 147.367 48.3462V57.2085H144.389V55.3774H144.291C143.965 55.9959 143.477 56.5005 142.826 56.8911C142.175 57.2817 141.361 57.4771 140.385 57.4771C139.53 57.4771 138.765 57.3224 138.09 57.0132C137.423 56.7039 136.898 56.2482 136.515 55.646C136.133 55.0438 135.941 54.3195 135.941 53.4731ZM138.944 53.4487C138.944 54.0103 139.148 54.4416 139.555 54.7427C139.962 55.0356 140.507 55.1821 141.19 55.1821C141.801 55.1821 142.342 55.0601 142.814 54.8159C143.286 54.5718 143.648 54.2422 143.9 53.8271C144.161 53.404 144.291 52.9442 144.291 52.4478L144.279 51.3613L141.361 51.5444C140.596 51.6095 140.002 51.8008 139.579 52.1182C139.156 52.4355 138.944 52.8791 138.944 53.4487Z" fill="black"/>
</svg>
