<svg width="268" height="92" viewBox="0 0 268 92" fill="none" xmlns="http://www.w3.org/2000/svg">
<rect x="1" y="1" width="266" height="90" fill="white" stroke="black" stroke-width="2"/>
<path d="M98.9443 48.8232H83.4658V36.8359H98.749V39.0332H86.2246V41.6943H98.2363V43.8184H86.2246V46.6748H98.9443V48.8232ZM101.166 54.4873H81V52.2656H101.166V54.4873ZM110.097 43.5742H104.945V46.333C106.304 46.3167 107.488 46.272 108.498 46.1987C109.515 46.1174 110.552 45.9749 111.61 45.7715L111.879 47.9199C110.658 48.1559 109.454 48.3146 108.266 48.396C107.077 48.4692 105.58 48.5059 103.773 48.5059H102.284V41.5967H107.46V38.9355H102.26V36.8115H110.097V43.5742ZM120.229 51.7041H117.641V35.127H120.229V51.7041ZM115.761 51.1426H113.197V43.0859H110.927V40.8398H113.197V35.5176H115.761V51.1426ZM120.839 56.7334H105.458V50.0439H108.168V54.5361H120.839V56.7334ZM139.633 47.627H124.154V37.0312H139.462V39.2285H126.84V45.4541H139.633V47.627ZM141.879 54.3652H121.713V52.1191H141.879V54.3652ZM159.35 39.4727H157.226V49.4092C158.536 49.2952 159.512 49.1976 160.155 49.1162L160.277 51.0693C158.235 51.4193 156.086 51.6553 153.832 51.7773C151.586 51.8913 149.234 51.9482 146.776 51.9482L146.459 49.7266L149.12 49.7021V39.4727H147.021V37.251H159.35V39.4727ZM164.037 43.6475H167.431V45.8691H164.037V57.1729H161.327V35.1025H164.037V43.6475ZM151.757 49.6655C152.359 49.6493 153.311 49.6167 154.613 49.5679V39.4727H151.757V49.6655ZM173.31 36.3721C174.424 36.3639 175.434 36.5877 176.337 37.0435C177.24 37.491 177.952 38.1217 178.473 38.9355C178.994 39.7412 179.258 40.6527 179.267 41.6699C179.258 42.7035 178.994 43.6271 178.473 44.4409C177.96 45.2466 177.252 45.8773 176.349 46.333C175.446 46.7887 174.433 47.0166 173.31 47.0166C172.178 47.0166 171.157 46.7887 170.246 46.333C169.342 45.8773 168.63 45.2466 168.109 44.4409C167.597 43.6271 167.344 42.7035 167.353 41.6699C167.344 40.6527 167.597 39.7412 168.109 38.9355C168.63 38.1217 169.346 37.491 170.258 37.0435C171.169 36.5877 172.187 36.3639 173.31 36.3721ZM173.31 38.667C172.675 38.6751 172.105 38.8053 171.601 39.0576C171.096 39.3018 170.701 39.6517 170.417 40.1074C170.14 40.555 170.006 41.0758 170.014 41.6699C170.006 42.2803 170.14 42.8174 170.417 43.2812C170.701 43.7451 171.096 44.0991 171.601 44.3433C172.105 44.5874 172.675 44.7054 173.31 44.6973C173.936 44.7054 174.498 44.5874 174.994 44.3433C175.499 44.0991 175.893 43.7451 176.178 43.2812C176.463 42.8174 176.605 42.2803 176.605 41.6699C176.605 41.0758 176.463 40.555 176.178 40.1074C175.893 39.6517 175.499 39.3018 174.994 39.0576C174.498 38.8053 173.936 38.6751 173.31 38.667ZM184.516 40.4736H187.592V42.6953H184.516V48.042H181.806V35.1025H184.516V40.4736ZM184.516 57.1973H181.806V51.2402H169.818V49.043H184.516V57.1973Z" fill="black"/>
</svg>
