<svg width="432" height="96" viewBox="0 0 432 96" fill="none" xmlns="http://www.w3.org/2000/svg">
<rect x="3.61523" y="2.84375" width="425" height="90" fill="white" stroke="black" stroke-width="2"/>
<path d="M102.707 59.041H99.9727V36.9463H102.707V59.041ZM96.3594 41.1699H88.4492V51.4238C90.5977 51.4157 92.3758 51.3669 93.7837 51.2773C95.1916 51.1878 96.5954 51.0169 97.9951 50.7646L98.2637 53.0107C96.7581 53.2874 95.2201 53.4746 93.6494 53.5723C92.0869 53.6699 90.0687 53.7188 87.5947 53.7188H85.7148V38.9482H96.3594V41.1699ZM112.614 43.2207C112.614 44.3763 112.834 45.54 113.273 46.7119C113.721 47.8838 114.36 48.9499 115.19 49.9102C116.028 50.8704 117.009 51.611 118.132 52.1318L116.618 54.2803C115.406 53.7106 114.344 52.8765 113.432 51.7778C112.521 50.6711 111.809 49.4056 111.296 47.9814C110.783 49.5358 110.055 50.9152 109.111 52.1196C108.167 53.3241 107.072 54.2233 105.827 54.8174L104.24 52.6934C105.371 52.1562 106.364 51.3791 107.219 50.3618C108.081 49.3446 108.741 48.2093 109.196 46.9561C109.66 45.7028 109.896 44.4577 109.904 43.2207V41.3652H105.095V39.1191H117.229V41.3652H112.614V43.2207ZM121.989 45.54H125.383V47.8105H121.989V59.0166H119.279V36.9463H121.989V45.54ZM143.444 52.9131H140.71V36.9707H143.444V52.9131ZM144.055 58.5771H128.845V51.3018H131.579V56.3799H144.055V58.5771ZM131.408 38.4111C132.515 38.4111 133.52 38.6512 134.423 39.1313C135.327 39.6034 136.039 40.2585 136.56 41.0967C137.08 41.9349 137.341 42.8789 137.341 43.9287C137.341 44.9948 137.08 45.951 136.56 46.7974C136.039 47.6356 135.327 48.2907 134.423 48.7627C133.52 49.2347 132.515 49.4707 131.408 49.4707C130.293 49.4707 129.28 49.2347 128.369 48.7627C127.465 48.2907 126.753 47.6356 126.232 46.7974C125.712 45.951 125.451 44.9948 125.451 43.9287C125.451 42.8789 125.712 41.9349 126.232 41.0967C126.753 40.2585 127.465 39.6034 128.369 39.1313C129.28 38.6512 130.293 38.4111 131.408 38.4111ZM131.408 40.7793C130.782 40.7793 130.216 40.9095 129.711 41.1699C129.207 41.4303 128.812 41.8006 128.527 42.2808C128.243 42.7609 128.104 43.3102 128.112 43.9287C128.104 44.5635 128.243 45.1209 128.527 45.6011C128.812 46.0812 129.207 46.4515 129.711 46.7119C130.216 46.9723 130.782 47.1025 131.408 47.1025C132.019 47.1025 132.572 46.9723 133.068 46.7119C133.565 46.4515 133.955 46.0812 134.24 45.6011C134.533 45.1209 134.68 44.5635 134.68 43.9287C134.68 43.3102 134.533 42.7609 134.24 42.2808C133.955 41.8006 133.565 41.4303 133.068 41.1699C132.572 40.9095 132.019 40.7793 131.408 40.7793ZM167.507 41.9756H170.583V44.1973H167.507V49.3486H164.797V36.9463H167.507V41.9756ZM161.379 38.2891C161.371 40.1852 160.96 41.8901 160.146 43.4038C159.34 44.9175 158.164 46.2114 156.618 47.2856C155.08 48.3517 153.208 49.1777 151.003 49.7637L149.929 47.5908C152.451 46.9398 154.437 45.9998 155.886 44.771C157.334 43.534 158.181 42.1058 158.425 40.4863H150.979V38.2891H161.379ZM167.507 58.7236H153.225V50.2275H167.507V58.7236ZM155.935 56.5752H164.821V52.4492H155.935V56.5752ZM187.863 42.2686H190.939V44.5391H187.863V49.8125H185.153V36.9463H187.863V42.2686ZM181.711 38.2402C181.711 40.1527 181.308 41.8698 180.502 43.3916C179.697 44.9053 178.521 46.1951 176.975 47.2612C175.437 48.3192 173.565 49.1289 171.359 49.6904L170.236 47.6152C171.937 47.1758 173.398 46.6021 174.619 45.894C175.847 45.1779 176.812 44.36 177.512 43.4404C178.212 42.5127 178.639 41.5117 178.793 40.4375H171.335V38.2402H181.711ZM187.863 59.0166H185.153V52.9131H173.166V50.7402H187.863V59.0166ZM210.93 50.5205H190.812V48.3477H210.93V50.5205ZM208.659 58.5771H193.303V52.1562H196.013V56.3799H208.659V58.5771ZM200.847 37.6543C202.442 37.6543 203.837 37.8333 205.034 38.1914C206.23 38.5495 207.154 39.0662 207.805 39.7417C208.464 40.409 208.798 41.2025 208.806 42.1221C208.798 43.0498 208.464 43.8555 207.805 44.5391C207.154 45.2145 206.23 45.7354 205.034 46.1016C203.837 46.4596 202.442 46.6387 200.847 46.6387C199.252 46.6387 197.852 46.4596 196.647 46.1016C195.451 45.7354 194.523 45.2145 193.864 44.5391C193.213 43.8555 192.888 43.0498 192.888 42.1221C192.888 41.2025 193.213 40.409 193.864 39.7417C194.523 39.0662 195.451 38.5495 196.647 38.1914C197.852 37.8333 199.252 37.6543 200.847 37.6543ZM200.847 39.8271C199.235 39.8271 197.974 40.0306 197.062 40.4375C196.159 40.8363 195.712 41.3978 195.72 42.1221C195.712 42.6104 195.911 43.0295 196.318 43.3794C196.733 43.7293 197.323 43.9938 198.088 44.1729C198.861 44.3438 199.781 44.4251 200.847 44.417C202.466 44.4333 203.728 44.242 204.631 43.8433C205.542 43.4364 205.998 42.8626 205.998 42.1221C205.998 41.3896 205.542 40.8241 204.631 40.4253C203.728 40.0265 202.466 39.8271 200.847 39.8271ZM235.969 49.5928H227.204V58.9922H224.47V49.5928H215.852V47.3467H221.064C221.414 46.0202 221.654 44.8158 221.784 43.7334C221.923 42.651 222.008 41.585 222.041 40.5352H217.463V38.3623H224.714V39.4854C224.714 40.7386 224.661 41.9674 224.555 43.1719C224.458 44.3682 224.213 45.7598 223.823 47.3467H230.28C230.573 46.0283 230.769 44.828 230.866 43.7456C230.972 42.6551 231.029 41.585 231.037 40.5352H226.276V38.3623H233.723V39.7051C233.723 40.9665 233.682 42.175 233.601 43.3306C233.519 44.4862 233.328 45.8249 233.027 47.3467H235.969V49.5928ZM254.519 40.1201H248.122C248.203 40.82 248.549 41.4873 249.16 42.1221C249.77 42.7568 250.604 43.3021 251.662 43.7578C252.72 44.2135 253.941 44.5228 255.324 44.6855L254.299 46.834C252.346 46.598 250.665 46.0731 249.257 45.2593C247.849 44.4455 246.844 43.4364 246.242 42.2319C245.64 43.4364 244.639 44.4455 243.239 45.2593C241.84 46.0731 240.163 46.598 238.21 46.834L237.209 44.6855C238.592 44.5228 239.809 44.2135 240.859 43.7578C241.917 43.3021 242.747 42.7568 243.349 42.1221C243.951 41.4873 244.297 40.82 244.387 40.1201H238.039V37.9473H254.519V40.1201ZM256.35 50.252H247.829V54.2803H245.144V50.252H236.184V48.0547H256.35V50.252ZM254.128 58.5771H238.625V52.2539H241.335V56.3799H254.128V58.5771ZM274.924 59.0166H272.189V36.9463H274.924V59.0166ZM270.261 42.5371H257.028V40.3643H262.277V37.2148H265.036V40.3643H270.261V42.5371ZM263.693 43.9531C264.759 43.9531 265.72 44.1769 266.574 44.6245C267.429 45.064 268.096 45.6784 268.576 46.4678C269.064 47.2572 269.309 48.1523 269.309 49.1533C269.309 50.1543 269.064 51.0495 268.576 51.8389C268.096 52.6201 267.429 53.2305 266.574 53.6699C265.72 54.1094 264.759 54.3291 263.693 54.3291C262.619 54.3291 261.655 54.1094 260.8 53.6699C259.954 53.2305 259.287 52.6201 258.798 51.8389C258.318 51.0495 258.078 50.1543 258.078 49.1533C258.078 48.1523 258.318 47.2572 258.798 46.4678C259.287 45.6784 259.954 45.064 260.8 44.6245C261.655 44.1769 262.619 43.9531 263.693 43.9531ZM263.693 46.1748C263.107 46.1748 262.587 46.2969 262.131 46.541C261.675 46.7852 261.317 47.1351 261.057 47.5908C260.796 48.0384 260.666 48.5592 260.666 49.1533C260.666 49.7474 260.796 50.2682 261.057 50.7158C261.317 51.1553 261.675 51.4971 262.131 51.7412C262.587 51.9772 263.107 52.0911 263.693 52.083C264.279 52.0911 264.796 51.9772 265.244 51.7412C265.699 51.4971 266.053 51.1553 266.306 50.7158C266.566 50.2682 266.696 49.7474 266.696 49.1533C266.696 48.5592 266.566 48.0384 266.306 47.5908C266.053 47.1351 265.699 46.7852 265.244 46.541C264.796 46.2969 264.279 46.1748 263.693 46.1748ZM287.731 37.9229C288.675 37.9147 289.542 38.0815 290.332 38.4233C291.121 38.757 291.78 39.2331 292.309 39.8516C292.846 40.4619 293.204 41.1699 293.383 41.9756H297.375V36.9463H300.085V48.7871H297.375V44.1729H293.408C293.229 44.9948 292.871 45.7191 292.333 46.3457C291.805 46.9723 291.141 47.4606 290.344 47.8105C289.546 48.1523 288.675 48.3232 287.731 48.3232C286.617 48.3232 285.616 48.0994 284.729 47.6519C283.841 47.2043 283.146 46.5858 282.641 45.7964C282.145 44.9989 281.896 44.0996 281.896 43.0986C281.896 42.1058 282.145 41.2147 282.641 40.4253C283.146 39.6359 283.841 39.0215 284.729 38.582C285.616 38.1344 286.617 37.9147 287.731 37.9229ZM287.731 40.1934C287.097 40.1934 286.535 40.3114 286.047 40.5474C285.559 40.7834 285.176 41.1211 284.899 41.5605C284.623 42 284.484 42.5127 284.484 43.0986C284.484 43.6764 284.623 44.1891 284.899 44.6367C285.176 45.0762 285.559 45.418 286.047 45.6621C286.543 45.9062 287.105 46.0283 287.731 46.0283C288.342 46.0283 288.887 45.9062 289.367 45.6621C289.855 45.418 290.234 45.0762 290.502 44.6367C290.779 44.1891 290.922 43.6764 290.93 43.0986C290.922 42.5127 290.779 42 290.502 41.5605C290.234 41.1211 289.86 40.7834 289.379 40.5474C288.899 40.3114 288.35 40.1934 287.731 40.1934ZM288.22 52.1562H297.375V49.8125H300.085V58.748H285.534V49.8125H288.22V52.1562ZM297.375 56.5508V54.2559H288.22V56.5508H297.375ZM311.457 40.6572H305.646V47.0537C306.965 47.0456 308.129 47.013 309.138 46.9561C310.147 46.891 311.197 46.777 312.287 46.6143L312.434 48.7627C311.172 48.958 309.951 49.0841 308.771 49.1411C307.6 49.1981 306.151 49.2266 304.426 49.2266H302.961V38.5088H311.457V40.6572ZM320.93 51.7168H318.342V36.9707H320.93V51.7168ZM316.511 49.8369H313.996V44.6611H310.139V42.4883H313.996V37.3857H316.511V49.8369ZM314.777 51.3262C314.777 52.1644 315.074 52.966 315.668 53.731C316.271 54.4959 317.121 55.151 318.22 55.6963C319.318 56.2415 320.596 56.6077 322.053 56.7949L321.027 58.8945C319.286 58.6423 317.756 58.1458 316.438 57.4053C315.119 56.6647 314.114 55.7451 313.422 54.6465C312.731 55.7451 311.722 56.6647 310.395 57.4053C309.077 58.1458 307.551 58.6423 305.817 58.8945L304.792 56.7949C306.249 56.6077 307.526 56.2415 308.625 55.6963C309.724 55.151 310.57 54.4959 311.164 53.731C311.766 52.966 312.067 52.1644 312.067 51.3262V50.6182H314.777V51.3262ZM347.116 49.2754H338.376V51.1187C340.37 51.2489 341.916 51.6517 343.015 52.3271C344.113 52.9945 344.667 53.8978 344.675 55.0371C344.667 55.8753 344.357 56.5915 343.747 57.1855C343.137 57.7796 342.262 58.2272 341.123 58.5283C339.983 58.8376 338.62 58.9922 337.033 58.9922C335.43 58.9922 334.051 58.8376 332.895 58.5283C331.748 58.2272 330.869 57.7796 330.258 57.1855C329.648 56.5915 329.343 55.8753 329.343 55.0371C329.343 53.8978 329.896 52.9904 331.003 52.3149C332.11 51.6395 333.672 51.2407 335.69 51.1187V49.2754H326.999V47.0781H347.116V49.2754ZM337.033 53.1572C335.414 53.1735 334.185 53.3403 333.347 53.6577C332.508 53.967 332.093 54.4268 332.102 55.0371C332.093 55.6475 332.508 56.1154 333.347 56.4409C334.193 56.7583 335.422 56.917 337.033 56.917C338.612 56.917 339.825 56.7583 340.671 56.4409C341.525 56.1154 341.957 55.6475 341.965 55.0371C341.957 54.4349 341.529 53.9751 340.683 53.6577C339.837 53.3403 338.62 53.1735 337.033 53.1572ZM345.31 40.0957H338.95C339.096 40.7061 339.479 41.2798 340.097 41.8169C340.724 42.354 341.554 42.8097 342.587 43.1841C343.629 43.5584 344.821 43.8066 346.164 43.9287L345.212 46.0771C343.226 45.8737 341.517 45.3976 340.085 44.6489C338.653 43.9002 337.635 42.9644 337.033 41.8413C336.431 42.9644 335.418 43.9043 333.994 44.6611C332.578 45.4098 330.881 45.8818 328.903 46.0771L327.976 43.9287C329.286 43.8066 330.454 43.5584 331.479 43.1841C332.504 42.8097 333.33 42.354 333.957 41.8169C334.584 41.2716 334.974 40.6979 335.129 40.0957H328.83V37.9229H345.31V40.0957Z" fill="black"/>
</svg>
