<svg width="166" height="166" viewBox="0 0 166 166" fill="none" xmlns="http://www.w3.org/2000/svg">
<rect x="0.662598" y="0.0332031" width="165" height="165" rx="82.5" fill="black"/>
<path d="M62.493 63.5532V82.5332H56.318V63.5532L38.378 36.1232H45.723L59.633 58.2232L73.218 36.1232H80.238L62.493 63.5532ZM78.7278 75.3182H85.9428V82.5332H78.7278V75.3182ZM122.039 70.9632C122.039 72.5232 121.8 74.0615 121.324 75.5782C120.89 77.0949 120.132 78.4599 119.049 79.6732C118.009 80.8432 116.6 81.7965 114.824 82.5332C113.09 83.2265 110.924 83.5732 108.324 83.5732C103.99 83.5732 100.654 82.4465 98.3136 80.1932C95.9736 77.8965 94.8036 74.5382 94.8036 70.1182V67.2582H100.979V69.2082C100.979 70.5515 101.087 71.7865 101.304 72.9132C101.52 74.0399 101.889 75.0149 102.409 75.8382C102.972 76.6615 103.73 77.3115 104.684 77.7882C105.68 78.2215 106.937 78.4382 108.454 78.4382C111.27 78.4382 113.199 77.6799 114.239 76.1632C115.322 74.6465 115.864 72.6099 115.864 70.0532V36.1232H122.039V70.9632Z" fill="white"/>
<mask id="mask0_1349_154" style="mask-type:alpha" maskUnits="userSpaceOnUse" x="25" y="23" width="116" height="119">
<rect x="3" y="-3" width="109.055" height="112.567" rx="54.5275" transform="matrix(1 0 0 -1 25.6353 135.816)" stroke="white" stroke-width="6"/>
</mask>
<g mask="url(#mask0_1349_154)">
<rect x="23.9858" y="91.8364" width="118.567" height="118.567" fill="white"/>
</g>
<line y1="-3" x2="23" y2="-3" transform="matrix(-0.889764 0.45642 -0.498141 -0.867096 37.6118 83.2241)" stroke="white" stroke-width="6"/>
<line y1="-3" x2="23" y2="-3" transform="matrix(-0.889764 0.45642 -0.498141 -0.867096 37.6118 83.2241)" stroke="white" stroke-width="6"/>
<line y1="-3" x2="23" y2="-3" transform="matrix(0.889764 0.45642 0.498141 -0.867096 130.458 83.2241)" stroke="white" stroke-width="6"/>
<line y1="-3" x2="23" y2="-3" transform="matrix(0.889764 0.45642 0.498141 -0.867096 130.458 83.2241)" stroke="white" stroke-width="6"/>
</svg>
