<svg width="398" height="93" viewBox="0 0 398 93" fill="none" xmlns="http://www.w3.org/2000/svg">
<rect x="1.92258" y="1.42773" width="395" height="90" fill="white" stroke="black" stroke-width="2"/>
<path d="M90.5407 40.8281C90.5326 42.1465 90.7401 43.4404 91.1633 44.71C91.5946 45.9714 92.2172 47.1025 93.031 48.1035C93.8448 49.1045 94.8051 49.8695 95.9118 50.3984L94.2517 52.5713C93.0798 51.9772 92.0626 51.1309 91.1999 50.0322C90.3454 48.9336 89.6781 47.6641 89.198 46.2236C88.7015 47.7617 88.0017 49.1208 87.0984 50.3008C86.2032 51.4727 85.1371 52.3678 83.9001 52.9863L82.24 50.8135C83.3874 50.2682 84.3803 49.4748 85.2185 48.4331C86.0648 47.3833 86.7077 46.1992 87.1472 44.8809C87.5948 43.5544 87.8226 42.2035 87.8308 40.8281V37.3125H90.5407V40.8281ZM99.9402 44.1729H103.334V46.4922H99.9402V57.6006H97.2302V35.5303H99.9402V44.1729ZM123.129 48.3232H103.011V46.1504H107.699V43.355C106.861 42.9969 106.214 42.5412 105.758 41.9878C105.31 41.4344 105.087 40.8037 105.087 40.0957C105.087 39.2249 105.408 38.4762 106.051 37.8496C106.702 37.2148 107.626 36.7306 108.822 36.397C110.026 36.0633 111.434 35.8965 113.046 35.8965C114.657 35.8965 116.061 36.0633 117.257 36.397C118.453 36.7306 119.373 37.2148 120.016 37.8496C120.667 38.4762 120.996 39.2249 121.005 40.0957C120.996 40.8118 120.765 41.4466 120.309 42C119.861 42.5534 119.214 43.005 118.368 43.355V46.1504H123.129V48.3232ZM113.046 49.666C114.633 49.6579 115.996 49.8084 117.135 50.1177C118.274 50.4188 119.149 50.8664 119.759 51.4604C120.37 52.0464 120.679 52.7585 120.687 53.5967C120.679 54.443 120.37 55.1592 119.759 55.7451C119.149 56.3392 118.274 56.7868 117.135 57.0879C115.996 57.3971 114.633 57.5518 113.046 57.5518C111.442 57.5518 110.063 57.3971 108.907 57.0879C107.76 56.7868 106.881 56.3392 106.271 55.7451C105.66 55.1592 105.355 54.443 105.355 53.5967C105.355 52.7585 105.66 52.0464 106.271 51.4604C106.881 50.8664 107.76 50.4188 108.907 50.1177C110.063 49.8084 111.442 49.6579 113.046 49.666ZM113.046 51.7168C111.426 51.7168 110.197 51.8755 109.359 52.1929C108.521 52.5103 108.106 52.9782 108.114 53.5967C108.106 54.2152 108.521 54.6872 109.359 55.0127C110.205 55.3382 111.434 55.501 113.046 55.501C114.624 55.501 115.837 55.3382 116.683 55.0127C117.538 54.6872 117.969 54.2152 117.977 53.5967C117.969 52.9782 117.542 52.5103 116.696 52.1929C115.849 51.8755 114.633 51.7168 113.046 51.7168ZM113.046 37.9961C111.402 37.9961 110.132 38.1792 109.237 38.5454C108.35 38.9035 107.911 39.4202 107.919 40.0957C107.911 40.763 108.35 41.2716 109.237 41.6216C110.124 41.9715 111.394 42.1465 113.046 42.1465C114.681 42.1465 115.947 41.9715 116.842 41.6216C117.745 41.2716 118.197 40.763 118.197 40.0957C118.197 39.4202 117.745 38.9035 116.842 38.5454C115.947 38.1792 114.681 37.9961 113.046 37.9961ZM115.658 46.1504V44.0508C114.836 44.1647 113.965 44.2217 113.046 44.2217C112.126 44.2217 111.255 44.1647 110.433 44.0508V46.1504H115.658ZM131.278 41.8047C131.278 42.9603 131.498 44.124 131.937 45.2959C132.385 46.4678 133.024 47.5339 133.854 48.4941C134.692 49.4544 135.673 50.195 136.796 50.7158L135.282 52.8643C134.069 52.2946 133.007 51.4604 132.096 50.3618C131.184 49.255 130.472 47.9896 129.96 46.5654C129.447 48.1198 128.719 49.4992 127.775 50.7036C126.831 51.908 125.736 52.8073 124.491 53.4014L122.904 51.2773C124.035 50.7402 125.028 49.9631 125.883 48.9458C126.745 47.9285 127.404 46.7933 127.86 45.54C128.324 44.2868 128.56 43.0417 128.568 41.8047V39.9492H123.759V37.7031H135.892V39.9492H131.278V41.8047ZM140.653 44.124H144.047V46.3945H140.653V57.6006H137.943V35.5303H140.653V44.124ZM160.736 38.4844V38.7773C160.72 39.9004 160.679 40.9258 160.614 41.8535C160.549 42.7812 160.411 43.8229 160.199 44.9785L157.513 44.7344C157.709 43.709 157.843 42.7812 157.916 41.9512C157.989 41.113 158.038 40.2666 158.063 39.4121H149.481V37.166H160.736V38.4844ZM155.17 46.6021C157.782 46.4881 160.036 46.2969 161.932 46.0283L162.079 47.9814C160.044 48.3477 157.92 48.5918 155.707 48.7139C153.501 48.8278 151.068 48.8929 148.407 48.9092L148.163 46.7363H148.602L152.484 46.6875V42.1953H155.17V46.6021ZM166.009 42.415H168.866V44.6855H166.009V52.0586H163.226V35.5303H166.009V42.415ZM166.717 57.1611H151.459V50.5938H154.193V54.9639H166.717V57.1611ZM187.245 48.3477H184.535V43.001H180.726V40.7793H184.535V35.5303H187.245V48.3477ZM187.245 57.332H172.572V49.2998H187.245V57.332ZM175.282 55.1348H184.584V51.4482H175.282V55.1348ZM176.869 39.168C176.869 40.0713 177.068 40.9502 177.467 41.8047C177.866 42.6592 178.456 43.4282 179.237 44.1118C180.018 44.7954 180.962 45.3285 182.069 45.7109L180.702 47.8594C179.497 47.4443 178.456 46.8421 177.577 46.0527C176.706 45.2633 176.023 44.3356 175.526 43.2695C175.022 44.4495 174.309 45.4749 173.39 46.3457C172.47 47.2083 171.376 47.8512 170.106 48.2744L168.715 46.1504C169.854 45.7679 170.826 45.2145 171.632 44.4902C172.446 43.766 173.06 42.944 173.475 42.0244C173.898 41.0967 174.11 40.1364 174.11 39.1436V38.9727H169.52V36.7754H181.434V38.9727H176.869V39.168ZM208.163 57.6006H205.551V35.5303H208.163V57.6006ZM203.622 56.5264H201.034V46.0283H198.934C198.853 47.4525 198.601 48.6895 198.177 49.7393C197.762 50.7809 197.205 51.5825 196.505 52.144C195.805 52.6974 195.004 52.9701 194.1 52.9619C193.148 52.9701 192.31 52.6567 191.586 52.022C190.87 51.3791 190.316 50.4635 189.926 49.2754C189.535 48.0791 189.34 46.6794 189.34 45.0762C189.34 43.473 189.535 42.0814 189.926 40.9014C190.316 39.7132 190.87 38.8018 191.586 38.167C192.31 37.5322 193.148 37.2148 194.1 37.2148C194.987 37.2148 195.773 37.4793 196.456 38.0083C197.148 38.5373 197.701 39.2982 198.116 40.291C198.54 41.2839 198.804 42.4639 198.91 43.8311H201.034V35.9209H203.622V56.5264ZM194.1 39.7783C193.636 39.7702 193.234 39.9696 192.892 40.3765C192.55 40.7834 192.29 41.3856 192.111 42.1831C191.932 42.9806 191.846 43.945 191.854 45.0762C191.846 46.2074 191.932 47.1717 192.111 47.9692C192.29 48.7668 192.55 49.369 192.892 49.7759C193.234 50.1828 193.636 50.3822 194.1 50.374C194.841 50.3903 195.415 49.9386 195.822 49.019C196.237 48.0994 196.444 46.7852 196.444 45.0762C196.444 43.3672 196.237 42.0529 195.822 41.1333C195.415 40.2137 194.841 39.762 194.1 39.7783ZM217.631 40.8281C217.631 42.2116 217.842 43.5503 218.265 44.8442C218.697 46.13 219.323 47.2694 220.145 48.2622C220.975 49.255 221.96 49.9997 223.099 50.4961L221.464 52.6689C220.243 52.0749 219.189 51.2204 218.302 50.1055C217.423 48.9906 216.744 47.6966 216.263 46.2236C215.767 47.7861 215.067 49.1615 214.164 50.3496C213.269 51.5378 212.203 52.4492 210.966 53.084L209.257 50.8867C210.42 50.3415 211.421 49.5439 212.259 48.4941C213.106 47.4443 213.749 46.2521 214.188 44.9175C214.636 43.5828 214.864 42.2197 214.872 40.8281V37.3125H217.631V40.8281ZM227.982 57.625H225.297V44.8564H220.658V42.6592H225.297V35.5303H227.982V57.625ZM241.4 39.6318C241.4 40.4456 241.559 41.235 241.876 42C242.194 42.765 242.674 43.4526 243.317 44.063C243.968 44.6733 244.761 45.1576 245.697 45.5156L244.257 47.5908C243.296 47.2246 242.47 46.7078 241.779 46.0405C241.087 45.3732 240.537 44.596 240.131 43.709C239.707 44.7344 239.13 45.6418 238.397 46.4312C237.673 47.2205 236.802 47.8268 235.785 48.25L234.32 46.1748C235.288 45.7435 236.106 45.1738 236.774 44.4658C237.441 43.7578 237.941 42.9888 238.275 42.1587C238.609 41.3205 238.78 40.4782 238.788 39.6318V36.8975H241.4V39.6318ZM253.387 49.0801H250.8V43.3428H248.602V48.3965H246.063V35.9697H248.602V41.1211H250.8V35.5547H253.387V49.0801ZM245.941 49.4463C247.471 49.4463 248.802 49.609 249.933 49.9346C251.072 50.252 251.951 50.7158 252.57 51.3262C253.188 51.9365 253.501 52.6608 253.509 53.499C253.501 54.3372 253.188 55.0615 252.57 55.6719C251.951 56.2904 251.072 56.7624 249.933 57.0879C248.802 57.4134 247.471 57.5762 245.941 57.5762C244.395 57.5762 243.052 57.4134 241.913 57.0879C240.773 56.7624 239.899 56.2904 239.288 55.6719C238.678 55.0615 238.373 54.3372 238.373 53.499C238.373 52.6608 238.678 51.9365 239.288 51.3262C239.899 50.7158 240.773 50.252 241.913 49.9346C243.052 49.609 244.395 49.4463 245.941 49.4463ZM245.941 51.4971C244.403 51.4971 243.207 51.672 242.352 52.022C241.506 52.3638 241.083 52.8561 241.083 53.499C241.083 54.1501 241.506 54.6465 242.352 54.9883C243.199 55.3301 244.395 55.501 245.941 55.501C247.471 55.501 248.659 55.3301 249.506 54.9883C250.352 54.6465 250.775 54.1501 250.775 53.499C250.775 52.8561 250.348 52.3638 249.493 52.022C248.647 51.672 247.463 51.4971 245.941 51.4971ZM272.279 40.8525H275.355V43.123H272.279V48.3965H269.569V35.5303H272.279V40.8525ZM266.127 36.8242C266.127 38.7367 265.724 40.4538 264.918 41.9756C264.113 43.4893 262.937 44.7791 261.39 45.8452C259.852 46.9032 257.981 47.7129 255.775 48.2744L254.652 46.1992C256.353 45.7598 257.814 45.186 259.034 44.478C260.263 43.7619 261.228 42.944 261.927 42.0244C262.627 41.0967 263.055 40.0957 263.209 39.0215H255.751V36.8242H266.127ZM272.279 57.6006H269.569V51.4971H257.582V49.3242H272.279V57.6006ZM292.513 44.3193H295.907V46.5654H292.513V57.6006H289.828V35.5303H292.513V44.3193ZM288.119 41.0967H275.106V38.9238H280.331V35.8477H283.041V38.9238H288.119V41.0967ZM281.698 42.5371C282.748 42.5371 283.692 42.7609 284.53 43.2085C285.376 43.6479 286.04 44.2624 286.52 45.0518C287 45.8411 287.24 46.7363 287.24 47.7373C287.24 48.7383 287 49.6335 286.52 50.4229C286.04 51.2041 285.376 51.8145 284.53 52.2539C283.692 52.6934 282.748 52.9131 281.698 52.9131C280.632 52.9131 279.676 52.6934 278.829 52.2539C277.983 51.8145 277.32 51.2041 276.84 50.4229C276.359 49.6335 276.123 48.7383 276.132 47.7373C276.123 46.7363 276.359 45.8411 276.84 45.0518C277.32 44.2624 277.983 43.6479 278.829 43.2085C279.676 42.7609 280.632 42.5371 281.698 42.5371ZM281.698 44.7588C281.12 44.7588 280.603 44.8809 280.148 45.125C279.7 45.3691 279.35 45.7191 279.098 46.1748C278.846 46.6224 278.719 47.1432 278.719 47.7373C278.719 48.3314 278.846 48.8522 279.098 49.2998C279.35 49.7393 279.7 50.0811 280.148 50.3252C280.603 50.5612 281.12 50.6751 281.698 50.667C282.259 50.6751 282.76 50.5612 283.199 50.3252C283.647 50.0811 283.997 49.7393 284.249 49.2998C284.51 48.8522 284.644 48.3314 284.652 47.7373C284.644 47.1432 284.51 46.6224 284.249 46.1748C283.997 45.7272 283.647 45.3813 283.199 45.1372C282.76 44.8849 282.259 44.7588 281.698 44.7588ZM314.017 57.6006H311.283V35.5303H314.017V57.6006ZM307.426 37.874C307.426 41.3815 306.632 44.4618 305.045 47.1147C303.458 49.7596 300.826 51.9528 297.147 53.6943L295.731 51.5215C298.571 50.1706 300.708 48.5552 302.14 46.6753C303.58 44.7873 304.423 42.5697 304.667 40.0225H296.854V37.874H307.426Z" fill="black"/>
</svg>
