<svg width="428" height="92" viewBox="0 0 428 92" fill="none" xmlns="http://www.w3.org/2000/svg">
<rect x="1" y="1" width="426" height="90" fill="white" stroke="black" stroke-width="2"/>
<path d="M92.7676 37.3242V49.751C92.7676 50.874 92.5316 51.8506 92.0596 52.6807C91.5876 53.5026 90.9202 54.1374 90.0576 54.585C89.2031 55.0244 88.2103 55.2441 87.0791 55.2441C86.0293 55.2441 85.0894 55.057 84.2593 54.6826C83.4373 54.3001 82.7904 53.7386 82.3184 52.998C81.8464 52.2575 81.6104 51.3623 81.6104 50.3125H84.7842C84.7842 51.0286 85.0039 51.5942 85.4434 52.0093C85.891 52.4243 86.4769 52.6318 87.2012 52.6318C87.9743 52.6318 88.5684 52.3877 88.9834 51.8994C89.3984 51.403 89.61 50.6868 89.6182 49.751V37.3242H92.7676ZM104.408 42.1826C104.335 41.4339 103.997 40.848 103.395 40.4248C102.801 40.0016 102.024 39.79 101.063 39.79C100.412 39.79 99.8428 39.8877 99.3545 40.083C98.8662 40.2783 98.4919 40.5509 98.2314 40.9009C97.971 41.2508 97.8408 41.6455 97.8408 42.085C97.8408 42.7604 98.1216 43.2853 98.6831 43.6597C99.2446 44.0259 99.973 44.3148 100.868 44.5264L102.528 44.9658C104.05 45.3158 105.291 45.8976 106.251 46.7114C107.22 47.5171 107.704 48.6279 107.704 50.0439C107.704 51.0775 107.44 51.9889 106.911 52.7783C106.382 53.5677 105.613 54.1821 104.604 54.6216C103.603 55.0529 102.406 55.2686 101.015 55.2686C99.6393 55.2686 98.4471 55.057 97.438 54.6338C96.4289 54.2025 95.6395 53.5799 95.0698 52.7661C94.5083 51.9442 94.2031 50.9554 94.1543 49.7998H97.2793C97.3525 50.695 97.7269 51.3786 98.4023 51.8506C99.0859 52.3226 99.9486 52.5586 100.99 52.5586C101.682 52.5586 102.296 52.4528 102.833 52.2412C103.371 52.0296 103.786 51.7326 104.079 51.3501C104.38 50.9595 104.53 50.516 104.53 50.0195C104.53 49.3766 104.262 48.8761 103.725 48.5181C103.196 48.1519 102.398 47.8304 101.332 47.5537L99.3301 47.041C96.1888 46.2191 94.6182 44.6322 94.6182 42.2803C94.6182 41.2549 94.8989 40.3516 95.4604 39.5703C96.022 38.7809 96.7951 38.1706 97.7798 37.7393C98.7726 37.2998 99.8835 37.0801 101.112 37.0801C102.349 37.0801 103.444 37.2998 104.396 37.7393C105.356 38.1706 106.101 38.7728 106.63 39.5459C107.167 40.319 107.444 41.1979 107.46 42.1826H104.408ZM128.354 54.6094H108.188V52.3633H116.879V48.7744H110.58V41.5479H123.275V38.8135H110.531V36.6162H125.961V43.6963H113.29V46.5527H126.474V48.7744H119.564V52.3633H128.354V54.6094ZM151.61 51.0693H148.876V35.127H151.61V51.0693ZM152.221 56.7334H137.011V49.458H139.745V54.5361H152.221V56.7334ZM139.574 36.5674C140.681 36.5674 141.686 36.8075 142.589 37.2876C143.493 37.7596 144.205 38.4147 144.726 39.2529C145.246 40.0911 145.507 41.0352 145.507 42.085C145.507 43.151 145.246 44.1073 144.726 44.9536C144.205 45.7918 143.493 46.4469 142.589 46.9189C141.686 47.391 140.681 47.627 139.574 47.627C138.459 47.627 137.446 47.391 136.535 46.9189C135.631 46.4469 134.919 45.7918 134.398 44.9536C133.878 44.1073 133.617 43.151 133.617 42.085C133.617 41.0352 133.878 40.0911 134.398 39.2529C134.919 38.4147 135.631 37.7596 136.535 37.2876C137.446 36.8075 138.459 36.5674 139.574 36.5674ZM139.574 38.9355C138.948 38.9355 138.382 39.0658 137.877 39.3262C137.373 39.5866 136.978 39.9569 136.693 40.437C136.409 40.9172 136.27 41.4665 136.278 42.085C136.27 42.7197 136.409 43.2772 136.693 43.7573C136.978 44.2375 137.373 44.6077 137.877 44.8682C138.382 45.1286 138.948 45.2588 139.574 45.2588C140.185 45.2588 140.738 45.1286 141.234 44.8682C141.731 44.6077 142.121 44.2375 142.406 43.7573C142.699 43.2772 142.846 42.7197 142.846 42.085C142.846 41.4665 142.699 40.9172 142.406 40.437C142.121 39.9569 141.731 39.5866 141.234 39.3262C140.738 39.0658 140.185 38.9355 139.574 38.9355ZM172.089 57.1973H169.403V45.2832H165.253V43.0859H169.403V35.1025H172.089V57.1973ZM164.911 39.2285H157.318V43.1836H164.032V45.332H157.318V49.873C159.125 49.8649 160.692 49.8201 162.018 49.7388C163.353 49.6574 164.691 49.5068 166.034 49.2871L166.303 51.4844C164.773 51.7204 163.255 51.8831 161.75 51.9727C160.244 52.054 158.433 52.1029 156.317 52.1191H154.584V37.0068H164.911V39.2285ZM192.812 48.8721H190.224V42.9883H187.929V48.7012H185.39V35.542H187.929V40.791H190.224V35.127H192.812V48.8721ZM192.812 57.1729H190.102V52.0215H177.699V49.8486H192.812V57.1729ZM183.241 43.208H177.504V45.7227C178.896 45.7064 180.104 45.6576 181.129 45.5762C182.163 45.4948 183.209 45.3483 184.267 45.1367L184.511 47.334C183.266 47.5537 182.045 47.7002 180.849 47.7734C179.652 47.8385 178.163 47.8711 176.381 47.8711H174.867V41.1816H180.629V38.7891H174.843V36.6406H183.241V43.208ZM206.625 39.2285H198.251V43.1592H205.746V45.3076H198.251V49.8486C200.204 49.8405 201.909 49.7917 203.366 49.7021C204.822 49.6045 206.299 49.4336 207.797 49.1895L208.065 51.3867C206.422 51.639 204.786 51.814 203.158 51.9116C201.531 52.0011 199.618 52.0459 197.421 52.0459H195.565V37.0068H206.625V39.2285ZM212.729 57.1729H209.994V35.1025H212.729V57.1729ZM234.818 54.4141H214.652V52.168H234.818V54.4141ZM219.584 40.376H229.813V36.5918H232.523V48.2373H216.874V36.5918H219.584V40.376ZM229.813 46.1133V42.5H219.584V46.1133H229.813ZM252.416 42.0605H255.492V44.3066H252.416V51.6064H249.706V35.127H252.416V42.0605ZM248.119 39.7412H235.033V37.5684H240.233V35.1025H242.943V37.5684H248.119V39.7412ZM241.576 40.6445C242.626 40.6445 243.558 40.8195 244.372 41.1694C245.185 41.5194 245.82 42.0158 246.276 42.6587C246.732 43.2935 246.964 44.0299 246.972 44.8682C246.964 45.6982 246.732 46.4307 246.276 47.0654C245.82 47.6921 245.185 48.1803 244.372 48.5303C243.558 48.8721 242.626 49.043 241.576 49.043C240.518 49.043 239.578 48.8721 238.756 48.5303C237.934 48.1803 237.296 47.6921 236.84 47.0654C236.384 46.4307 236.156 45.6982 236.156 44.8682C236.156 44.0299 236.384 43.2935 236.84 42.6587C237.296 42.0158 237.934 41.5194 238.756 41.1694C239.578 40.8195 240.518 40.6445 241.576 40.6445ZM241.576 42.7441C240.722 42.7441 240.042 42.9313 239.538 43.3057C239.041 43.68 238.793 44.2008 238.793 44.8682C238.793 45.5192 239.045 46.0319 239.55 46.4062C240.054 46.7806 240.73 46.9596 241.576 46.9434C242.423 46.9596 243.102 46.7806 243.615 46.4062C244.127 46.0319 244.384 45.5192 244.384 44.8682C244.384 44.2008 244.127 43.68 243.615 43.3057C243.11 42.9313 242.431 42.7441 241.576 42.7441ZM253.295 56.7334H238.28V50.3125H240.99V54.5361H253.295V56.7334ZM279.091 48.7012H276.479V35.1025H279.091V48.7012ZM274.916 48.6768H272.353V47.749H268.837V45.8936H272.353V35.4932H274.916V48.6768ZM259.901 43.4033C261.985 43.4033 264.011 43.3626 265.98 43.2812C267.95 43.1999 269.732 43.0371 271.327 42.793L271.498 44.624C270.229 44.9007 268.788 45.1042 267.177 45.2344V48.6035H264.564V45.3931C263.783 45.4338 262.701 45.4541 261.317 45.4541H260.17L259.901 43.4033ZM266.298 51.1182H276.381V49.4336H279.091V56.9043H263.612V49.4336H266.298V51.1182ZM276.381 54.7803V53.1934H266.298V54.7803H276.381ZM265.761 35.8838C266.721 35.8838 267.563 36.0181 268.288 36.2866C269.02 36.547 269.586 36.9255 269.984 37.4219C270.391 37.9102 270.595 38.488 270.595 39.1553C270.595 39.8145 270.391 40.3923 269.984 40.8887C269.586 41.3851 269.02 41.7716 268.288 42.0483C267.555 42.3169 266.713 42.4512 265.761 42.4512C264.8 42.4512 263.95 42.3169 263.209 42.0483C262.477 41.7716 261.907 41.3851 261.5 40.8887C261.102 40.3923 260.902 39.8145 260.902 39.1553C260.902 38.488 261.102 37.9102 261.5 37.4219C261.907 36.9255 262.477 36.547 263.209 36.2866C263.942 36.0181 264.792 35.8838 265.761 35.8838ZM265.761 37.7637C265.012 37.7637 264.426 37.8857 264.003 38.1299C263.58 38.3659 263.368 38.7077 263.368 39.1553C263.368 39.611 263.576 39.9569 263.991 40.1929C264.414 40.4289 265.004 40.5469 265.761 40.5469C266.501 40.5469 267.087 40.4289 267.519 40.1929C267.95 39.9569 268.17 39.611 268.178 39.1553C268.17 38.7077 267.946 38.3659 267.506 38.1299C267.075 37.8857 266.493 37.7637 265.761 37.7637ZM296.293 47.4316H285.844V37.0068H296.293V47.4316ZM288.505 45.2832H293.632V39.1797H288.505V45.2832ZM302.494 41.5723H305.57V43.8428H302.494V51.2158H299.784V35.1025H302.494V41.5723ZM303.373 56.7334H288.358V49.6533H291.068V54.5361H303.373V56.7334ZM325.585 46.0889H305.443V43.9404H325.585V46.0889ZM323.192 42.5244H308.007V35.6641H322.997V37.8369H310.717V40.376H323.192V42.5244ZM323.046 53.1445H310.497V54.8291H323.656V56.9531H307.836V51.1914H320.385V49.6533H307.812V47.6025H323.046V53.1445ZM344.232 57.1729H341.498V35.1025H344.232V57.1729ZM337.641 37.4463C337.641 40.9538 336.847 44.034 335.26 46.687C333.673 49.3319 331.041 51.5251 327.362 53.2666L325.946 51.0938C328.786 49.7428 330.923 48.1274 332.355 46.2476C333.795 44.3595 334.638 42.1419 334.882 39.5947H327.069V37.4463H337.641Z" fill="black"/>
</svg>
