<svg width="333" height="97" viewBox="0 0 333 97" fill="none" xmlns="http://www.w3.org/2000/svg">
<rect x="3.10938" y="3.50684" width="327" height="90" fill="white" stroke="black" stroke-width="2"/>
<path d="M89.8721 39.2212C90.8649 39.2212 91.7601 39.4857 92.5576 40.0146C93.3551 40.5436 94.0062 41.3005 94.5107 42.2852C95.0153 43.2617 95.3286 44.4132 95.4507 45.7397H99.6621V37.6099H102.348V59.7046H99.6621V47.937H95.4873C95.3896 49.3368 95.0926 50.5575 94.5962 51.5991C94.0998 52.6326 93.4447 53.4302 92.6309 53.9917C91.8171 54.5451 90.8975 54.8218 89.8721 54.8218C88.7653 54.8218 87.7847 54.5044 86.9302 53.8696C86.0757 53.2349 85.4084 52.3275 84.9282 51.1475C84.4481 49.9674 84.208 48.5881 84.208 47.0093C84.208 45.4468 84.4481 44.0796 84.9282 42.9077C85.4084 41.7277 86.0757 40.8203 86.9302 40.1855C87.7928 39.5426 88.7734 39.2212 89.8721 39.2212ZM89.8721 41.6626C89.2617 41.6626 88.7246 41.8783 88.2607 42.3096C87.7969 42.7327 87.4388 43.3472 87.1865 44.1528C86.9342 44.9504 86.8122 45.9025 86.8203 47.0093C86.8122 48.1242 86.9342 49.0845 87.1865 49.8901C87.4388 50.6958 87.7969 51.3143 88.2607 51.7456C88.7246 52.1688 89.2617 52.3804 89.8721 52.3804C90.4824 52.3804 91.0155 52.1688 91.4712 51.7456C91.9351 51.3143 92.2931 50.6958 92.5454 49.8901C92.8058 49.0845 92.9401 48.1242 92.9482 47.0093C92.9401 45.9025 92.8058 44.9463 92.5454 44.1406C92.2931 43.335 91.9351 42.7205 91.4712 42.2974C91.0155 41.8742 90.4824 41.6626 89.8721 41.6626ZM123.241 52.6489H107.104V50.5737H113.842V48.6938H116.552V50.5737H123.241V52.6489ZM115.136 53.4302C116.479 53.4302 117.63 53.5522 118.59 53.7964C119.551 54.0405 120.283 54.3945 120.788 54.8584C121.3 55.3223 121.557 55.8797 121.557 56.5308C121.557 57.548 120.995 58.3252 119.872 58.8623C118.749 59.4076 117.17 59.6802 115.136 59.6802C113.101 59.6802 111.518 59.4076 110.387 58.8623C109.264 58.3252 108.707 57.548 108.715 56.5308C108.707 55.8797 108.955 55.3223 109.459 54.8584C109.972 54.3945 110.709 54.0405 111.669 53.7964C112.637 53.5522 113.793 53.4302 115.136 53.4302ZM115.136 55.3101C113.98 55.3263 113.101 55.4362 112.499 55.6396C111.897 55.835 111.596 56.132 111.596 56.5308C111.596 56.9539 111.897 57.2713 112.499 57.4829C113.109 57.6945 113.988 57.8003 115.136 57.8003C116.267 57.8003 117.134 57.6945 117.736 57.4829C118.338 57.2713 118.643 56.9539 118.651 56.5308C118.627 55.7414 117.455 55.3345 115.136 55.3101ZM110.351 40.7104H107.299V45.7886C108.471 45.7316 109.569 45.5933 110.595 45.3735L110.79 47.4976C109.919 47.6766 109.11 47.7905 108.361 47.8394C107.612 47.8882 106.713 47.9126 105.663 47.9126H104.638V38.5864H110.351V40.7104ZM117.626 40.7104H114.135V45.8008C115.006 45.7845 115.75 45.7438 116.369 45.6787C116.987 45.6055 117.618 45.4956 118.261 45.3491L118.48 47.4976C117.683 47.6766 116.889 47.7905 116.1 47.8394C115.311 47.8882 114.143 47.9126 112.597 47.9126H111.449V38.5864H117.626V40.7104ZM122.875 49.3774H120.214V44.0796H116.869V42.0044H120.214V37.6099H122.875V49.3774ZM143.598 59.6802H141.01V37.6099H143.598V59.6802ZM138.91 58.6304H136.347V48.4741H132.404C131.077 51.1027 128.917 53.2837 125.922 55.0171L124.384 53.0884C126.63 51.77 128.319 50.2441 129.45 48.5107C130.581 46.7692 131.252 44.7632 131.464 42.4927H125.507V40.2954H134.149C134.149 42.5171 133.865 44.519 133.295 46.3013H136.347V38.147H138.91V58.6304ZM165.053 50.769H144.911V48.5962H165.053V50.769ZM162.807 46.5942H147.377V38.4888H162.611V40.6372H150.087V44.397H162.807V46.5942ZM162.953 59.2163H147.401V52.6978H150.062V57.019H162.953V59.2163ZM180.717 43.2983H169.901V41.1255H174.003V38.2446H176.688V41.1255H180.717V43.2983ZM175.346 44.4702C176.273 44.4702 177.099 44.6899 177.824 45.1294C178.556 45.5607 179.126 46.167 179.533 46.9482C179.948 47.7295 180.155 48.6125 180.155 49.5972C180.155 50.5981 179.948 51.4933 179.533 52.2827C179.126 53.0721 178.556 53.6906 177.824 54.1382C177.099 54.5776 176.273 54.7974 175.346 54.7974C174.426 54.7974 173.6 54.5776 172.868 54.1382C172.135 53.6906 171.562 53.0721 171.146 52.2827C170.731 51.4933 170.528 50.5981 170.536 49.5972C170.528 48.6125 170.731 47.7295 171.146 46.9482C171.562 46.167 172.135 45.5607 172.868 45.1294C173.6 44.6899 174.426 44.4702 175.346 44.4702ZM175.346 46.7163C174.866 46.7163 174.442 46.8384 174.076 47.0825C173.71 47.3185 173.425 47.6562 173.222 48.0957C173.018 48.527 172.921 49.0275 172.929 49.5972C172.921 50.1831 173.018 50.6958 173.222 51.1353C173.425 51.5747 173.71 51.9124 174.076 52.1484C174.442 52.3763 174.866 52.4862 175.346 52.478C175.818 52.4862 176.237 52.3763 176.603 52.1484C176.969 51.9124 177.254 51.5747 177.458 51.1353C177.661 50.6958 177.763 50.1831 177.763 49.5972C177.763 49.0275 177.661 48.527 177.458 48.0957C177.254 47.6562 176.969 47.3185 176.603 47.0825C176.237 46.8384 175.818 46.7163 175.346 46.7163ZM188.92 59.6802H186.332V48.8892H184.184V58.6792H181.645V38.0737H184.184V46.6919H186.332V37.6099H188.92V59.6802ZM209.252 59.6802H206.64V48.5229H204.198V58.5571H201.659V38.0249H204.198V46.3013H206.64V37.6099H209.252V59.6802ZM193.993 51.7944C196.223 51.7537 198.323 51.534 200.292 51.1353L200.561 53.5034C199.161 53.7557 197.826 53.9347 196.557 54.0405C195.287 54.1382 194.009 54.187 192.724 54.187H191.259V40.1489H193.993V51.7944ZM229.096 59.6802H226.361V37.6099H229.096V59.6802ZM222.504 39.9536C222.504 43.4611 221.71 46.5413 220.124 49.1943C218.537 51.8392 215.904 54.0324 212.226 55.7739L210.81 53.6011C213.65 52.2502 215.786 50.6348 217.218 48.7549C218.659 46.8669 219.501 44.6493 219.745 42.1021H211.933V39.9536H222.504ZM235.292 52.3071H232.533L232.24 39.8315H235.561L235.292 52.3071ZM233.925 57.7026C233.583 57.7026 233.266 57.6172 232.973 57.4463C232.68 57.2754 232.448 57.0435 232.277 56.7505C232.106 56.4575 232.021 56.1401 232.021 55.7983C232.021 55.4647 232.106 55.1554 232.277 54.8706C232.448 54.5776 232.68 54.3457 232.973 54.1748C233.266 54.0039 233.583 53.9185 233.925 53.9185C234.25 53.9185 234.556 54.0039 234.84 54.1748C235.133 54.3457 235.365 54.5776 235.536 54.8706C235.715 55.1554 235.805 55.4647 235.805 55.7983C235.805 56.1401 235.715 56.4575 235.536 56.7505C235.365 57.0435 235.133 57.2754 234.84 57.4463C234.556 57.6172 234.25 57.7026 233.925 57.7026ZM241.293 52.3071H238.534L238.241 39.8315H241.562L241.293 52.3071ZM239.926 57.7026C239.584 57.7026 239.267 57.6172 238.974 57.4463C238.681 57.2754 238.449 57.0435 238.278 56.7505C238.107 56.4575 238.021 56.1401 238.021 55.7983C238.021 55.4647 238.107 55.1554 238.278 54.8706C238.449 54.5776 238.681 54.3457 238.974 54.1748C239.267 54.0039 239.584 53.9185 239.926 53.9185C240.251 53.9185 240.556 54.0039 240.841 54.1748C241.134 54.3457 241.366 54.5776 241.537 54.8706C241.716 55.1554 241.806 55.4647 241.806 55.7983C241.806 56.1401 241.716 56.4575 241.537 56.7505C241.366 57.0435 241.134 57.2754 240.841 57.4463C240.556 57.6172 240.251 57.7026 239.926 57.7026ZM247.294 52.3071H244.535L244.242 39.8315H247.562L247.294 52.3071ZM245.927 57.7026C245.585 57.7026 245.268 57.6172 244.975 57.4463C244.682 57.2754 244.45 57.0435 244.279 56.7505C244.108 56.4575 244.022 56.1401 244.022 55.7983C244.022 55.4647 244.108 55.1554 244.279 54.8706C244.45 54.5776 244.682 54.3457 244.975 54.1748C245.268 54.0039 245.585 53.9185 245.927 53.9185C246.252 53.9185 246.557 54.0039 246.842 54.1748C247.135 54.3457 247.367 54.5776 247.538 54.8706C247.717 55.1554 247.807 55.4647 247.807 55.7983C247.807 56.1401 247.717 56.4575 247.538 56.7505C247.367 57.0435 247.135 57.2754 246.842 57.4463C246.557 57.6172 246.252 57.7026 245.927 57.7026Z" fill="black"/>
</svg>
