<svg width="279" height="93" viewBox="0 0 279 93" fill="none" xmlns="http://www.w3.org/2000/svg">
<rect x="1.66943" y="1.96533" width="276" height="90" fill="white" stroke="black" stroke-width="2"/>
<path d="M83.3052 38.2896H89.9458C91.2642 38.2896 92.3913 38.5378 93.3271 39.0342C94.263 39.5306 94.971 40.2223 95.4512 41.1094C95.9313 41.9883 96.1714 43.0015 96.1714 44.1489C96.1714 45.2882 95.9272 46.3014 95.439 47.1885C94.9588 48.0674 94.2467 48.755 93.3027 49.2515C92.3587 49.7397 91.2235 49.9839 89.897 49.9839H86.479V55.9653H83.3052V38.2896ZM89.4575 47.3716C90.6131 47.3716 91.4798 47.0827 92.0576 46.5049C92.6354 45.9189 92.9243 45.1336 92.9243 44.1489C92.9243 43.1561 92.6354 42.3748 92.0576 41.8052C91.4798 41.2355 90.6131 40.9507 89.4575 40.9507H86.479V47.3716H89.4575ZM100.463 55.9653H97.3384V38.2896H100.39V44.9546H100.561C100.878 44.1815 101.363 43.5874 102.014 43.1724C102.673 42.7492 103.499 42.5376 104.492 42.5376C105.411 42.5376 106.213 42.7329 106.896 43.1235C107.588 43.506 108.121 44.0716 108.496 44.8203C108.87 45.569 109.057 46.4683 109.057 47.5181V55.9653H105.957V48.0063C105.957 47.103 105.725 46.4072 105.261 45.9189C104.805 45.4225 104.166 45.1743 103.344 45.1743C102.783 45.1743 102.282 45.2964 101.843 45.5405C101.411 45.7765 101.074 46.1224 100.83 46.5781C100.585 47.0339 100.463 47.575 100.463 48.2017V55.9653ZM116.547 56.2339C115.278 56.2339 114.163 55.9491 113.203 55.3794C112.242 54.8097 111.502 54.0122 110.981 52.9868C110.46 51.9533 110.2 50.757 110.2 49.3979C110.2 48.0308 110.46 46.8304 110.981 45.7969C111.502 44.7633 112.242 43.9618 113.203 43.3921C114.163 42.8224 115.278 42.5376 116.547 42.5376C117.825 42.5376 118.944 42.8224 119.904 43.3921C120.865 43.9618 121.601 44.7633 122.114 45.7969C122.635 46.8304 122.895 48.0308 122.895 49.3979C122.895 50.757 122.635 51.9533 122.114 52.9868C121.593 54.0203 120.852 54.8219 119.892 55.3916C118.94 55.9531 117.825 56.2339 116.547 56.2339ZM116.572 53.7437C117.255 53.7437 117.833 53.5524 118.305 53.1699C118.785 52.7874 119.143 52.2666 119.379 51.6074C119.624 50.9482 119.746 50.2036 119.746 49.3735C119.746 48.5516 119.624 47.811 119.379 47.1519C119.143 46.4845 118.785 45.9596 118.305 45.5771C117.833 45.1947 117.255 45.0034 116.572 45.0034C115.872 45.0034 115.278 45.1947 114.79 45.5771C114.309 45.9596 113.947 46.4805 113.703 47.1396C113.467 47.7988 113.349 48.5435 113.349 49.3735C113.349 50.2036 113.467 50.9482 113.703 51.6074C113.947 52.2666 114.309 52.7874 114.79 53.1699C115.278 53.5524 115.872 53.7437 116.572 53.7437ZM130.678 45.1011H128.066V51.9858C128.066 52.5718 128.188 52.9746 128.432 53.1943C128.684 53.4141 129.034 53.5239 129.482 53.5239C129.873 53.5239 130.328 53.5076 130.849 53.4751V56.0142C130.442 56.0955 129.856 56.1362 129.091 56.1362C128.286 56.1362 127.569 56.006 126.943 55.7456C126.324 55.4771 125.836 55.0701 125.478 54.5249C125.128 53.9797 124.957 53.3042 124.965 52.4985V45.1011H123.061V42.7085H124.965V39.5347H128.066V42.7085H130.678V45.1011ZM137.46 56.2339C136.191 56.2339 135.076 55.9491 134.116 55.3794C133.155 54.8097 132.415 54.0122 131.894 52.9868C131.373 51.9533 131.113 50.757 131.113 49.3979C131.113 48.0308 131.373 46.8304 131.894 45.7969C132.415 44.7633 133.155 43.9618 134.116 43.3921C135.076 42.8224 136.191 42.5376 137.46 42.5376C138.738 42.5376 139.857 42.8224 140.817 43.3921C141.778 43.9618 142.514 44.7633 143.027 45.7969C143.548 46.8304 143.808 48.0308 143.808 49.3979C143.808 50.757 143.548 51.9533 143.027 52.9868C142.506 54.0203 141.765 54.8219 140.805 55.3916C139.853 55.9531 138.738 56.2339 137.46 56.2339ZM137.485 53.7437C138.168 53.7437 138.746 53.5524 139.218 53.1699C139.698 52.7874 140.056 52.2666 140.292 51.6074C140.537 50.9482 140.659 50.2036 140.659 49.3735C140.659 48.5516 140.537 47.811 140.292 47.1519C140.056 46.4845 139.698 45.9596 139.218 45.5771C138.746 45.1947 138.168 45.0034 137.485 45.0034C136.785 45.0034 136.191 45.1947 135.703 45.5771C135.222 45.9596 134.86 46.4805 134.616 47.1396C134.38 47.7988 134.262 48.5435 134.262 49.3735C134.262 50.2036 134.38 50.9482 134.616 51.6074C134.86 52.2666 135.222 52.7874 135.703 53.1699C136.191 53.5524 136.785 53.7437 137.485 53.7437ZM152.495 46.4927C152.397 45.9881 152.145 45.5894 151.738 45.2964C151.331 45.0034 150.802 44.8569 150.151 44.8569C149.711 44.8569 149.313 44.9261 148.955 45.0645C148.605 45.1947 148.332 45.3818 148.137 45.626C147.941 45.862 147.848 46.1265 147.856 46.4194C147.832 47.1274 148.458 47.632 149.736 47.9331L151.982 48.397C153.243 48.6818 154.179 49.1172 154.79 49.7031C155.4 50.2891 155.709 51.0581 155.717 52.0103C155.709 52.8403 155.473 53.5768 155.009 54.2197C154.545 54.8545 153.886 55.3509 153.032 55.709C152.185 56.0589 151.193 56.2339 150.053 56.2339C148.385 56.2339 147.058 55.8799 146.074 55.1719C145.097 54.4557 144.528 53.4588 144.365 52.1812H147.539C147.636 52.7427 147.897 53.1659 148.32 53.4507C148.751 53.7274 149.329 53.8657 150.053 53.8657C150.802 53.8657 151.404 53.7233 151.86 53.4385C152.316 53.1536 152.543 52.7671 152.543 52.2788C152.543 51.8963 152.385 51.583 152.067 51.3389C151.758 51.0866 151.274 50.8872 150.615 50.7407L148.491 50.2769C147.262 50.0327 146.33 49.5973 145.695 48.9707C145.069 48.3441 144.755 47.5506 144.755 46.5903C144.755 45.7847 144.975 45.0767 145.415 44.4663C145.854 43.8478 146.477 43.3717 147.282 43.0381C148.088 42.7044 149.028 42.5376 150.102 42.5376C151.144 42.5376 152.051 42.7004 152.824 43.0259C153.605 43.3433 154.22 43.799 154.667 44.3931C155.115 44.9871 155.375 45.687 155.449 46.4927H152.495ZM159.96 55.9653H156.835V38.2896H159.887V44.9546H160.058C160.375 44.1815 160.86 43.5874 161.511 43.1724C162.17 42.7492 162.996 42.5376 163.989 42.5376C164.908 42.5376 165.71 42.7329 166.394 43.1235C167.085 43.506 167.618 44.0716 167.993 44.8203C168.367 45.569 168.554 46.4683 168.554 47.5181V55.9653H165.454V48.0063C165.454 47.103 165.222 46.4072 164.758 45.9189C164.302 45.4225 163.663 45.1743 162.841 45.1743C162.28 45.1743 161.779 45.2964 161.34 45.5405C160.909 45.7765 160.571 46.1224 160.327 46.5781C160.083 47.0339 159.96 47.575 159.96 48.2017V55.9653ZM176.044 56.2339C174.775 56.2339 173.66 55.9491 172.7 55.3794C171.739 54.8097 170.999 54.0122 170.478 52.9868C169.957 51.9533 169.697 50.757 169.697 49.3979C169.697 48.0308 169.957 46.8304 170.478 45.7969C170.999 44.7633 171.739 43.9618 172.7 43.3921C173.66 42.8224 174.775 42.5376 176.044 42.5376C177.322 42.5376 178.441 42.8224 179.401 43.3921C180.362 43.9618 181.098 44.7633 181.611 45.7969C182.132 46.8304 182.392 48.0308 182.392 49.3979C182.392 50.757 182.132 51.9533 181.611 52.9868C181.09 54.0203 180.349 54.8219 179.389 55.3916C178.437 55.9531 177.322 56.2339 176.044 56.2339ZM176.069 53.7437C176.752 53.7437 177.33 53.5524 177.802 53.1699C178.282 52.7874 178.64 52.2666 178.876 51.6074C179.121 50.9482 179.243 50.2036 179.243 49.3735C179.243 48.5516 179.121 47.811 178.876 47.1519C178.64 46.4845 178.282 45.9596 177.802 45.5771C177.33 45.1947 176.752 45.0034 176.069 45.0034C175.369 45.0034 174.775 45.1947 174.287 45.5771C173.806 45.9596 173.444 46.4805 173.2 47.1396C172.964 47.7988 172.846 48.5435 172.846 49.3735C172.846 50.2036 172.964 50.9482 173.2 51.6074C173.444 52.2666 173.806 52.7874 174.287 53.1699C174.775 53.5524 175.369 53.7437 176.069 53.7437ZM183.559 42.7085H186.611V44.8813H186.806C187.14 44.2303 187.6 43.6769 188.186 43.2212C188.771 42.7655 189.581 42.5376 190.615 42.5376C191.648 42.5376 192.576 42.8021 193.398 43.3311C194.228 43.86 194.883 44.6372 195.363 45.6626C195.843 46.688 196.083 47.9168 196.083 49.3491C196.083 50.7733 195.847 52.0021 195.375 53.0356C194.903 54.0692 194.252 54.8586 193.422 55.4038C192.6 55.9409 191.665 56.2095 190.615 56.2095C188.857 56.2095 187.587 55.4282 186.806 53.8657H186.684V60.9458H183.559V42.7085ZM186.611 49.3247C186.611 50.1873 186.733 50.9442 186.977 51.5952C187.221 52.2463 187.579 52.7508 188.051 53.1089C188.523 53.467 189.093 53.646 189.76 53.646C190.428 53.646 190.997 53.4629 191.469 53.0967C191.941 52.7305 192.299 52.2218 192.543 51.5708C192.788 50.9198 192.91 50.1711 192.91 49.3247C192.91 48.4946 192.788 47.7581 192.543 47.1152C192.307 46.4723 191.953 45.9718 191.481 45.6138C191.009 45.2557 190.436 45.0767 189.76 45.0767C189.093 45.0767 188.523 45.2516 188.051 45.6016C187.579 45.9515 187.221 46.4479 186.977 47.0908C186.733 47.7256 186.611 48.4702 186.611 49.3247Z" fill="black"/>
</svg>
