<svg width="271" height="92" viewBox="0 0 271 92" fill="none" xmlns="http://www.w3.org/2000/svg">
<rect x="1" y="1" width="269" height="90" fill="white" stroke="black" stroke-width="2"/>
<path d="M87.8604 36.0791C88.8044 36.071 89.6711 36.2378 90.4604 36.5796C91.2498 36.9132 91.909 37.3893 92.438 38.0078C92.9751 38.6182 93.3332 39.3262 93.5122 40.1318H97.5039V35.1025H100.214V46.9434H97.5039V42.3291H93.5366C93.3576 43.151 92.9995 43.8753 92.4624 44.502C91.9334 45.1286 91.2702 45.6169 90.4727 45.9668C89.6751 46.3086 88.8044 46.4795 87.8604 46.4795C86.7454 46.4795 85.7445 46.2557 84.8574 45.8081C83.9704 45.3605 83.2746 44.742 82.77 43.9526C82.2736 43.1551 82.0254 42.2559 82.0254 41.2549C82.0254 40.262 82.2736 39.3709 82.77 38.5815C83.2746 37.7922 83.9704 37.1777 84.8574 36.7383C85.7445 36.2907 86.7454 36.071 87.8604 36.0791ZM87.8604 38.3496C87.2256 38.3496 86.6641 38.4676 86.1758 38.7036C85.6875 38.9396 85.305 39.2773 85.0283 39.7168C84.7516 40.1562 84.6133 40.6689 84.6133 41.2549C84.6133 41.8327 84.7516 42.3454 85.0283 42.793C85.305 43.2324 85.6875 43.5742 86.1758 43.8184C86.6722 44.0625 87.2337 44.1846 87.8604 44.1846C88.4707 44.1846 89.016 44.0625 89.4961 43.8184C89.9844 43.5742 90.3628 43.2324 90.6313 42.793C90.908 42.3454 91.0505 41.8327 91.0586 41.2549C91.0505 40.6689 90.908 40.1562 90.6313 39.7168C90.3628 39.2773 89.9884 38.9396 89.5083 38.7036C89.0282 38.4676 88.4788 38.3496 87.8604 38.3496ZM88.3486 50.3125H97.5039V47.9688H100.214V56.9043H85.6631V47.9688H88.3486V50.3125ZM97.5039 54.707V52.4121H88.3486V54.707H97.5039ZM122.23 49.7998H113.441V57.1484H110.756V49.7998H102.064V47.6025H122.23V49.7998ZM119.765 45.0146H104.53V36.2256H119.765V45.0146ZM107.191 42.8906H117.055V38.3984H107.191V42.8906ZM141.488 57.1729H138.876V35.1025H141.488V57.1729ZM136.947 56.0986H134.359V45.6006H132.26C132.178 47.0247 131.926 48.2617 131.503 49.3115C131.088 50.3532 130.53 51.1548 129.831 51.7163C129.131 52.2697 128.329 52.5423 127.426 52.5342C126.474 52.5423 125.635 52.229 124.911 51.5942C124.195 50.9513 123.642 50.0358 123.251 48.8477C122.86 47.6514 122.665 46.2516 122.665 44.6484C122.665 43.0452 122.86 41.6536 123.251 40.4736C123.642 39.2855 124.195 38.374 124.911 37.7393C125.635 37.1045 126.474 36.7871 127.426 36.7871C128.313 36.7871 129.098 37.0516 129.782 37.5806C130.473 38.1095 131.027 38.8704 131.442 39.8633C131.865 40.8561 132.13 42.0361 132.235 43.4033H134.359V35.4932H136.947V56.0986ZM127.426 39.3506C126.962 39.3424 126.559 39.5418 126.217 39.9487C125.875 40.3556 125.615 40.9578 125.436 41.7554C125.257 42.5529 125.172 43.5173 125.18 44.6484C125.172 45.7796 125.257 46.744 125.436 47.5415C125.615 48.339 125.875 48.9412 126.217 49.3481C126.559 49.755 126.962 49.9544 127.426 49.9463C128.166 49.9626 128.74 49.5109 129.147 48.5913C129.562 47.6717 129.77 46.3574 129.77 44.6484C129.77 42.9395 129.562 41.6252 129.147 40.7056C128.74 39.786 128.166 39.3343 127.426 39.3506ZM155.858 39.5947C155.858 40.5225 156.066 41.4176 156.481 42.2803C156.896 43.1348 157.51 43.8997 158.324 44.5752C159.138 45.2425 160.115 45.7552 161.254 46.1133L159.862 48.2373C158.633 47.8385 157.567 47.2485 156.664 46.4673C155.761 45.6779 155.053 44.7502 154.54 43.6841C154.027 44.8478 153.303 45.861 152.367 46.7236C151.439 47.5863 150.333 48.2373 149.047 48.6768L147.655 46.5283C148.803 46.1458 149.783 45.6006 150.597 44.8926C151.419 44.1764 152.042 43.3626 152.465 42.4512C152.896 41.5316 153.116 40.5794 153.124 39.5947V38.96H148.363V36.7871H160.497V38.96H155.858V39.5947ZM165.868 51.1426H163.134V35.127H165.868V51.1426ZM166.479 56.7334H151.269V49.6777H154.003V54.5361H166.479V56.7334ZM186.225 47.6025H183.49V35.127H186.225V47.6025ZM186.225 56.9043H171.576V48.7012H186.225V56.9043ZM174.262 54.707H183.563V50.8496H174.262V54.707ZM176.068 38.1055C176.068 39.0495 176.276 39.9528 176.691 40.8154C177.106 41.6781 177.712 42.443 178.51 43.1104C179.307 43.7777 180.268 44.2904 181.391 44.6484L180.072 46.7236C178.819 46.333 177.737 45.7511 176.825 44.978C175.914 44.1968 175.202 43.269 174.689 42.1948C174.176 43.3586 173.452 44.3717 172.516 45.2344C171.588 46.0889 170.478 46.7318 169.184 47.1631L167.841 45.0146C169.005 44.6403 169.993 44.0991 170.807 43.3911C171.621 42.6831 172.231 41.8734 172.638 40.9619C173.053 40.0423 173.261 39.0902 173.261 38.1055V35.957H176.068V38.1055Z" fill="black"/>
</svg>
