<svg width="271" height="92" viewBox="0 0 271 92" fill="none" xmlns="http://www.w3.org/2000/svg">
<rect x="1" y="1" width="269" height="90" rx="45" fill="black" stroke="black" stroke-width="2"/>
<path d="M81.4883 55L87.7139 37.3242H91.6201L97.8701 55H94.4766L92.9995 50.6299H86.3467L84.8818 55H81.4883ZM92.145 48.0664L89.7402 40.9375H89.5938L87.2012 48.0664H92.145ZM98.7197 37.3242H101.845V43.916H101.967C102.3 43.2568 102.756 42.7035 103.334 42.2559C103.912 41.8001 104.717 41.5723 105.751 41.5723C106.793 41.5723 107.729 41.8368 108.559 42.3657C109.389 42.8947 110.044 43.6719 110.524 44.6973C111.004 45.7227 111.244 46.9515 111.244 48.3838C111.244 49.8079 111.008 51.0368 110.536 52.0703C110.064 53.1038 109.413 53.8932 108.583 54.4385C107.753 54.9756 106.817 55.2441 105.775 55.2441C104.018 55.2441 102.748 54.4629 101.967 52.9004H101.771V55H98.7197V37.3242ZM101.771 48.3594C101.771 49.222 101.894 49.9788 102.138 50.6299C102.382 51.2809 102.736 51.7855 103.2 52.1436C103.672 52.5016 104.237 52.6807 104.896 52.6807C105.572 52.6807 106.146 52.4976 106.618 52.1313C107.098 51.7651 107.46 51.2565 107.704 50.6055C107.948 49.9544 108.07 49.2057 108.07 48.3594C108.07 47.5293 107.948 46.7928 107.704 46.1499C107.468 45.507 107.11 45.0065 106.63 44.6484C106.158 44.2904 105.58 44.1113 104.896 44.1113C104.237 44.1113 103.672 44.2863 103.2 44.6362C102.736 44.9862 102.382 45.4826 102.138 46.1255C101.894 46.7603 101.771 47.5049 101.771 48.3594ZM118.222 55.2686C116.952 55.2686 115.837 54.9837 114.877 54.4141C113.917 53.8444 113.176 53.0469 112.655 52.0215C112.134 50.988 111.874 49.7917 111.874 48.4326C111.874 47.0654 112.134 45.8651 112.655 44.8315C113.176 43.798 113.917 42.9964 114.877 42.4268C115.837 41.8571 116.952 41.5723 118.222 41.5723C119.499 41.5723 120.618 41.8571 121.579 42.4268C122.539 42.9964 123.275 43.798 123.788 44.8315C124.309 45.8651 124.569 47.0654 124.569 48.4326C124.569 49.7917 124.309 50.988 123.788 52.0215C123.267 53.055 122.527 53.8566 121.566 54.4263C120.614 54.9878 119.499 55.2686 118.222 55.2686ZM118.246 52.7783C118.93 52.7783 119.507 52.5871 119.979 52.2046C120.46 51.8221 120.818 51.3013 121.054 50.6421C121.298 49.9829 121.42 49.2383 121.42 48.4082C121.42 47.5863 121.298 46.8457 121.054 46.1865C120.818 45.5192 120.46 44.9943 119.979 44.6118C119.507 44.2293 118.93 44.0381 118.246 44.0381C117.546 44.0381 116.952 44.2293 116.464 44.6118C115.984 44.9943 115.622 45.5151 115.377 46.1743C115.141 46.8335 115.023 47.5781 115.023 48.4082C115.023 49.2383 115.141 49.9829 115.377 50.6421C115.622 51.3013 115.984 51.8221 116.464 52.2046C116.952 52.5871 117.546 52.7783 118.246 52.7783ZM134.208 41.7432H137.309V55H134.306V52.6563H134.159C133.842 53.4212 133.337 54.0316 132.646 54.4873C131.962 54.943 131.14 55.1709 130.18 55.1709C129.309 55.1709 128.54 54.9756 127.873 54.585C127.205 54.1943 126.684 53.6247 126.31 52.876C125.936 52.1273 125.744 51.2321 125.736 50.1904V41.7432H128.861V49.7021C128.861 50.2555 128.963 50.7438 129.167 51.167C129.378 51.582 129.671 51.9035 130.045 52.1313C130.428 52.3511 130.871 52.4609 131.376 52.4609C131.848 52.4609 132.3 52.347 132.731 52.1191C133.17 51.8831 133.524 51.5373 133.793 51.0815C134.07 50.6258 134.208 50.0765 134.208 49.4336V41.7432ZM145.653 44.1357H143.041V51.0205C143.041 51.6064 143.163 52.0093 143.407 52.229C143.66 52.4487 144.009 52.5586 144.457 52.5586C144.848 52.5586 145.303 52.5423 145.824 52.5098V55.0488C145.417 55.1302 144.831 55.1709 144.066 55.1709C143.261 55.1709 142.545 55.0407 141.918 54.7803C141.299 54.5117 140.811 54.1048 140.453 53.5596C140.103 53.0143 139.932 52.3389 139.94 51.5332V44.1357H138.036V41.7432H139.94V38.5693H143.041V41.7432H145.653V44.1357ZM151.479 41.7432H154.457V43.9893H154.628C154.896 43.2324 155.348 42.6424 155.983 42.2192C156.626 41.7879 157.387 41.5723 158.266 41.5723C159.161 41.5723 159.918 41.7839 160.536 42.207C161.155 42.6302 161.594 43.2243 161.854 43.9893H162.001C162.294 43.2487 162.79 42.6628 163.49 42.2314C164.198 41.792 165.028 41.5723 165.98 41.5723C166.794 41.5723 167.51 41.7472 168.129 42.0972C168.756 42.439 169.24 42.9517 169.582 43.6353C169.931 44.3107 170.106 45.1286 170.106 46.0889V55H167.006V46.5771C167.006 45.7878 166.794 45.1937 166.371 44.7949C165.956 44.388 165.411 44.1846 164.735 44.1846C163.979 44.1846 163.384 44.4206 162.953 44.8926C162.53 45.3564 162.318 45.9668 162.318 46.7236V55L159.291 55V46.4551C159.291 46.0075 159.193 45.6128 158.998 45.271C158.811 44.9211 158.546 44.6525 158.205 44.4653C157.871 44.2782 157.484 44.1846 157.045 44.1846C156.597 44.1846 156.186 44.3026 155.812 44.5386C155.446 44.7664 155.153 45.092 154.933 45.5151C154.713 45.9302 154.604 46.4063 154.604 46.9434V55H151.479V41.7432ZM177.719 55.2686C176.4 55.2686 175.253 54.9919 174.276 54.4385C173.308 53.877 172.563 53.0835 172.042 52.0581C171.53 51.0327 171.273 49.8324 171.273 48.457C171.273 47.098 171.534 45.9017 172.055 44.8682C172.576 43.8265 173.308 43.0168 174.252 42.439C175.204 41.8612 176.303 41.5723 177.548 41.5723C178.671 41.5723 179.688 41.8123 180.6 42.2925C181.519 42.7726 182.248 43.5173 182.785 44.5264C183.33 45.5273 183.603 46.7725 183.603 48.2617V49.2383H174.35C174.358 49.9788 174.504 50.6217 174.789 51.167C175.074 51.7041 175.469 52.1151 175.973 52.3999C176.478 52.6847 177.068 52.8271 177.743 52.8271C178.402 52.8271 178.964 52.701 179.428 52.4487C179.892 52.1965 180.225 51.8669 180.429 51.46H183.48C183.293 52.2249 182.939 52.8963 182.418 53.4741C181.898 54.0438 181.234 54.4873 180.429 54.8047C179.631 55.1139 178.728 55.2686 177.719 55.2686ZM180.624 47.1143C180.616 46.512 180.486 45.9749 180.233 45.5029C179.981 45.0309 179.627 44.6606 179.171 44.3921C178.716 44.1235 178.191 43.9893 177.597 43.9893C176.986 43.9893 176.441 44.1317 175.961 44.4165C175.489 44.6932 175.115 45.0716 174.838 45.5518C174.561 46.0238 174.403 46.5446 174.362 47.1143H180.624Z" fill="white"/>
</svg>
