<svg width="51" height="51" viewBox="0 0 51 51" fill="none" xmlns="http://www.w3.org/2000/svg">
<path d="M25.3462 34.9297C30.3131 34.9297 34.3395 30.9051 34.3395 25.9404C34.3395 20.9758 30.3131 16.9512 25.3462 16.9512C20.3794 16.9512 16.353 20.9758 16.353 25.9404C16.353 30.9051 20.3794 34.9297 25.3462 34.9297Z" fill="#FF4102"/>
<path d="M48.2664 30.931C49.2424 29.9711 49.9169 28.7472 50.207 27.4096C50.4971 26.0719 50.3903 24.6787 49.8997 23.4009C49.4091 22.1231 48.5559 21.0162 47.445 20.2161C46.334 19.416 45.0135 18.9574 43.6456 18.8966C43.5424 18.8921 43.4427 18.8583 43.3581 18.799C43.2736 18.7398 43.2077 18.6577 43.1683 18.5623C43.1292 18.4666 43.1182 18.3618 43.1367 18.2601C43.1551 18.1584 43.2023 18.0641 43.2725 17.9883C44.1883 16.9762 44.7914 15.7206 45.0087 14.3733C45.226 13.026 45.0483 11.6447 44.4972 10.3961C43.946 9.14757 43.0448 8.0853 41.9026 7.33766C40.7605 6.59002 39.4261 6.189 38.0608 6.18306H38.0348C36.2828 6.18277 34.5944 6.83961 33.3035 8.02369C33.2276 8.0941 33.1331 8.14132 33.0311 8.15977C32.9292 8.17823 32.8241 8.16716 32.7283 8.12786C32.6329 8.0883 32.5507 8.02245 32.4913 7.93798C32.4318 7.85351 32.3977 7.75391 32.3927 7.65078C32.3131 5.83622 31.5359 4.12239 30.2232 2.86653C28.9105 1.61066 27.1635 0.909668 25.3464 0.909668C23.5293 0.909668 21.7823 1.61066 20.4696 2.86653C19.1568 4.12239 18.3797 5.83622 18.3001 7.65078C18.2956 7.75389 18.2617 7.85358 18.2024 7.9381C18.1432 8.02262 18.061 8.08846 17.9655 8.12786C17.8697 8.16716 17.7646 8.17823 17.6627 8.15977C17.5608 8.14132 17.4662 8.0941 17.3903 8.02369C16.0988 6.83761 14.4087 6.17991 12.6549 6.18098H12.633C11.2692 6.19052 9.93715 6.59375 8.79721 7.34217C7.65727 8.09059 6.75796 9.15231 6.20749 10.3996C5.65701 11.6469 5.47882 13.0266 5.69434 14.3727C5.90987 15.7188 6.50994 16.974 7.42235 17.9873C7.49259 18.0631 7.53971 18.1574 7.55817 18.2591C7.57663 18.3607 7.56567 18.4656 7.52657 18.5612C7.48715 18.6566 7.42128 18.7388 7.33672 18.798C7.25216 18.8572 7.15243 18.8911 7.04927 18.8956C5.24507 18.9912 3.54629 19.775 2.30302 21.0854C1.05974 22.3957 0.366699 24.1329 0.366699 25.9388C0.366699 27.7448 1.05974 29.4819 2.30302 30.7923C3.54629 32.1027 5.24507 32.8864 7.04927 32.9821C7.15257 32.9871 7.2523 33.0214 7.33681 33.081C7.42133 33.1406 7.48714 33.223 7.52657 33.3185C7.56575 33.4144 7.57676 33.5194 7.5583 33.6212C7.53984 33.7231 7.49268 33.8176 7.42235 33.8935C6.50355 34.9026 5.89814 36.157 5.67986 37.5039C5.46157 38.8508 5.63983 40.2321 6.19292 41.4796C6.74601 42.727 7.65007 43.7868 8.79498 44.5298C9.9399 45.2728 11.2763 45.667 12.6413 45.6644H12.6674C14.4116 45.6692 16.0952 45.025 17.3903 43.8571C17.4661 43.7869 17.5605 43.7398 17.6622 43.7213C17.7639 43.7029 17.8688 43.7139 17.9645 43.7529C18.0599 43.7923 18.1421 43.8582 18.2014 43.9427C18.2606 44.0272 18.2945 44.1269 18.299 44.23C18.3947 46.0334 19.1788 47.7315 20.4897 48.9742C21.8007 50.2169 23.5386 50.9097 25.3453 50.9097C27.1521 50.9097 28.89 50.2169 30.2009 48.9742C31.5119 47.7315 32.296 46.0334 32.3917 44.23C32.3966 44.1269 32.4308 44.0273 32.4902 43.9428C32.5496 43.8583 32.6318 43.7925 32.7272 43.7529C32.8229 43.7139 32.9278 43.7029 33.0295 43.7213C33.1313 43.7398 33.2256 43.7869 33.3014 43.8571C34.5947 45.0269 36.2771 45.6737 38.0212 45.6717H38.0473C39.4135 45.6771 40.7518 45.2845 41.8985 44.542C43.0451 43.7995 43.9506 42.7392 44.5042 41.4906C45.0577 40.2421 45.2355 38.8594 45.0156 37.5115C44.7958 36.1636 44.1879 34.909 43.2662 33.9008C43.1959 33.8248 43.1488 33.7304 43.1303 33.6285C43.1118 33.5267 43.1228 33.4216 43.162 33.3258C43.2016 33.2305 43.2675 33.1483 43.352 33.0889C43.4365 33.0295 43.5361 32.9954 43.6393 32.9904C45.3845 32.904 47.0345 32.1696 48.2664 30.931ZM25.3469 34.2738C23.698 34.2738 22.0861 33.785 20.7151 32.8693C19.3441 31.9536 18.2755 30.6522 17.6445 29.1294C17.0135 27.6067 16.8484 25.9312 17.1701 24.3146C17.4918 22.6981 18.2858 21.2133 19.4518 20.0478C20.6177 18.8824 22.1032 18.0887 23.7204 17.7672C25.3377 17.4456 27.014 17.6107 28.5373 18.2414C30.0607 18.8721 31.3628 19.9402 32.2789 21.3106C33.195 22.681 33.6839 24.2922 33.6839 25.9404C33.6814 28.1498 32.8023 30.268 31.2393 31.8302C29.6764 33.3925 27.5573 34.2713 25.3469 34.2738Z" fill="#FF4102"/>
<line x1="25.1807" y1="6.91016" x2="25.1807" y2="44.9102" stroke="black" stroke-width="2"/>
<line x1="38.8336" y1="12.5001" x2="11.9635" y2="39.3701" stroke="black" stroke-width="2"/>
<line x1="44.3457" y1="26.228" x2="6.3457" y2="26.228" stroke="black" stroke-width="2"/>
<line x1="38.3022" y1="39.0919" x2="11.4321" y2="12.2218" stroke="black" stroke-width="2"/>
</svg>
