<svg width="378" height="93" viewBox="0 0 378 93" fill="none" xmlns="http://www.w3.org/2000/svg">
<rect x="1.88519" y="1.25293" width="375" height="90" fill="white" stroke="black" stroke-width="2"/>
<path d="M103.435 43.5342C103.313 42.8424 103.057 42.2443 102.666 41.7397C102.276 41.2352 101.779 40.8527 101.177 40.5923C100.583 40.3237 99.9278 40.1895 99.2116 40.1895C98.235 40.1895 97.3765 40.4336 96.6359 40.9219C95.8954 41.402 95.3176 42.11 94.9025 43.0459C94.4875 43.9818 94.28 45.1048 94.28 46.415C94.28 47.7334 94.4875 48.8605 94.9025 49.7964C95.3176 50.7323 95.8954 51.4403 96.6359 51.9204C97.3846 52.4006 98.2432 52.6406 99.2116 52.6406C99.9115 52.6406 100.554 52.5145 101.14 52.2622C101.734 52.0018 102.231 51.6274 102.63 51.1392C103.028 50.6509 103.297 50.069 103.435 49.3936H106.633C106.471 50.5329 106.06 51.5664 105.401 52.4941C104.75 53.4219 103.887 54.1543 102.813 54.6914C101.738 55.2285 100.522 55.4971 99.1628 55.4971C97.6084 55.4971 96.2168 55.1349 94.988 54.4106C93.7673 53.6782 92.8111 52.6284 92.1193 51.2612C91.4276 49.8859 91.0817 48.2705 91.0817 46.415C91.0817 44.5514 91.4276 42.936 92.1193 41.5688C92.8192 40.2017 93.7795 39.1559 95.0002 38.4316C96.229 37.6992 97.6166 37.333 99.1628 37.333C100.465 37.333 101.649 37.5812 102.715 38.0776C103.781 38.5659 104.656 39.278 105.34 40.2139C106.023 41.1416 106.454 42.2484 106.633 43.5342H103.435ZM117.737 42.4355C117.664 41.6868 117.326 41.1009 116.724 40.6777C116.13 40.2546 115.353 40.043 114.392 40.043C113.741 40.043 113.172 40.1406 112.683 40.3359C112.195 40.5312 111.821 40.8039 111.56 41.1538C111.3 41.5037 111.17 41.8984 111.17 42.3379C111.17 43.0133 111.45 43.5382 112.012 43.9126C112.573 44.2788 113.302 44.5677 114.197 44.7793L115.857 45.2188C117.379 45.5687 118.62 46.1506 119.58 46.9644C120.549 47.77 121.033 48.8809 121.033 50.2969C121.033 51.3304 120.768 52.2419 120.239 53.0312C119.71 53.8206 118.941 54.4351 117.932 54.8745C116.931 55.3058 115.735 55.5215 114.343 55.5215C112.968 55.5215 111.776 55.3099 110.767 54.8867C109.758 54.4554 108.968 53.8328 108.399 53.019C107.837 52.1971 107.532 51.2083 107.483 50.0527H110.608C110.681 50.9479 111.056 51.6315 111.731 52.1035C112.415 52.5755 113.277 52.8115 114.319 52.8115C115.011 52.8115 115.625 52.7057 116.162 52.4941C116.699 52.2826 117.114 51.9855 117.407 51.603C117.709 51.2124 117.859 50.7689 117.859 50.2725C117.859 49.6296 117.591 49.1291 117.053 48.771C116.524 48.4048 115.727 48.0833 114.661 47.8066L112.659 47.2939C109.518 46.472 107.947 44.8851 107.947 42.5332C107.947 41.5078 108.228 40.6045 108.789 39.8232C109.351 39.0339 110.124 38.4235 111.109 37.9922C112.101 37.5527 113.212 37.333 114.441 37.333C115.678 37.333 116.773 37.5527 117.725 37.9922C118.685 38.4235 119.43 39.0257 119.959 39.7988C120.496 40.5719 120.772 41.4508 120.789 42.4355H117.737ZM132.039 42.4355C131.966 41.6868 131.628 41.1009 131.026 40.6777C130.431 40.2546 129.654 40.043 128.694 40.043C128.043 40.043 127.473 40.1406 126.985 40.3359C126.497 40.5312 126.122 40.8039 125.862 41.1538C125.602 41.5037 125.471 41.8984 125.471 42.3379C125.471 43.0133 125.752 43.5382 126.314 43.9126C126.875 44.2788 127.604 44.5677 128.499 44.7793L130.159 45.2188C131.681 45.5687 132.922 46.1506 133.882 46.9644C134.85 47.77 135.335 48.8809 135.335 50.2969C135.335 51.3304 135.07 52.2419 134.541 53.0312C134.012 53.8206 133.243 54.4351 132.234 54.8745C131.233 55.3058 130.037 55.5215 128.645 55.5215C127.27 55.5215 126.078 55.3099 125.069 54.8867C124.059 54.4554 123.27 53.8328 122.7 53.019C122.139 52.1971 121.834 51.2083 121.785 50.0527H124.91C124.983 50.9479 125.357 51.6315 126.033 52.1035C126.716 52.5755 127.579 52.8115 128.621 52.8115C129.313 52.8115 129.927 52.7057 130.464 52.4941C131.001 52.2826 131.416 51.9855 131.709 51.603C132.01 51.2124 132.161 50.7689 132.161 50.2725C132.161 49.6296 131.892 49.1291 131.355 48.771C130.826 48.4048 130.029 48.0833 128.963 47.8066L126.961 47.2939C123.819 46.472 122.249 44.8851 122.249 42.5332C122.249 41.5078 122.529 40.6045 123.091 39.8232C123.653 39.0339 124.426 38.4235 125.41 37.9922C126.403 37.5527 127.514 37.333 128.743 37.333C129.98 37.333 131.074 37.5527 132.027 37.9922C132.987 38.4235 133.731 39.0257 134.26 39.7988C134.798 40.5719 135.074 41.4508 135.091 42.4355H132.039ZM158.494 37.4795C158.494 38.5618 158.453 39.5954 158.372 40.5801C158.299 41.5648 158.111 42.6715 157.81 43.9004L155.198 43.6562C155.434 42.6309 155.597 41.6991 155.686 40.8608C155.784 40.0145 155.845 39.1885 155.869 38.3828H150.73V36.2588H158.494V37.4795ZM160.569 47.4404H140.549V45.1943H149.632V41.3613H152.293V45.1943H160.569V47.4404ZM149.021 37.1377C149.005 37.8701 148.976 38.5252 148.936 39.103C148.903 39.6727 148.806 40.3807 148.643 41.2271C148.48 42.0734 148.232 42.9645 147.898 43.9004L145.31 43.6074C145.912 41.7845 146.254 40.043 146.336 38.3828H142.185V36.2588H149.021V37.1377ZM158.103 57.1572H142.966V49.418H158.103V57.1572ZM145.628 54.96H155.393V51.542H145.628V54.96ZM178.85 37.4795C178.85 38.5618 178.81 39.5954 178.728 40.5801C178.655 41.5648 178.468 42.6715 178.167 43.9004L175.554 43.6562C175.79 42.6309 175.953 41.6991 176.043 40.8608C176.14 40.0145 176.201 39.1885 176.226 38.3828H171.087V36.2588H178.85V37.4795ZM180.925 47.4404H160.906V45.1943H169.988V41.3613H172.649V45.1943H180.925V47.4404ZM169.378 37.1377C169.361 37.8701 169.333 38.5252 169.292 39.103C169.26 39.6727 169.162 40.3807 168.999 41.2271C168.836 42.0734 168.588 42.9645 168.255 43.9004L165.667 43.6074C166.269 41.7845 166.611 40.043 166.692 38.3828H162.542V36.2588H169.378V37.1377ZM178.46 57.1572H163.323V49.418H178.46V57.1572ZM165.984 54.96H175.75V51.542H165.984V54.96ZM198.499 44.1445H201.892V46.3906H198.499V57.4258H195.813V35.3555H198.499V44.1445ZM194.104 40.9219H181.091V38.749H186.316V35.6729H189.026V38.749H194.104V40.9219ZM187.683 42.3623C188.733 42.3623 189.677 42.5861 190.515 43.0337C191.362 43.4731 192.025 44.0876 192.505 44.877C192.985 45.6663 193.225 46.5615 193.225 47.5625C193.225 48.5635 192.985 49.4587 192.505 50.248C192.025 51.0293 191.362 51.6396 190.515 52.0791C189.677 52.5186 188.733 52.7383 187.683 52.7383C186.617 52.7383 185.661 52.5186 184.815 52.0791C183.968 51.6396 183.305 51.0293 182.825 50.248C182.345 49.4587 182.109 48.5635 182.117 47.5625C182.109 46.5615 182.345 45.6663 182.825 44.877C183.305 44.0876 183.968 43.4731 184.815 43.0337C185.661 42.5861 186.617 42.3623 187.683 42.3623ZM187.683 44.584C187.105 44.584 186.589 44.7061 186.133 44.9502C185.685 45.1943 185.335 45.5443 185.083 46C184.831 46.4476 184.705 46.9684 184.705 47.5625C184.705 48.1566 184.831 48.6774 185.083 49.125C185.335 49.5645 185.685 49.9062 186.133 50.1504C186.589 50.3864 187.105 50.5003 187.683 50.4922C188.245 50.5003 188.745 50.3864 189.185 50.1504C189.632 49.9062 189.982 49.5645 190.235 49.125C190.495 48.6774 190.629 48.1566 190.637 47.5625C190.629 46.9684 190.495 46.4476 190.235 46C189.982 45.5524 189.632 45.2065 189.185 44.9624C188.745 44.7101 188.245 44.584 187.683 44.584ZM220.613 57.4258H218.025V35.3555H220.613V57.4258ZM215.925 56.376H213.362V46.2197H209.419C208.093 48.8483 205.932 51.0293 202.937 52.7627L201.399 50.834C203.645 49.5156 205.334 47.9897 206.465 46.2563C207.596 44.5148 208.268 42.5088 208.479 40.2383H202.522V38.041H211.165C211.165 40.2627 210.88 42.2646 210.31 44.0469H213.362V35.8926H215.925V56.376ZM243.894 43.7295H247.288V45.9512H243.894V57.4502H241.184V35.3555H243.894V43.7295ZM237.84 39.6523H230.222V49.7842C232.005 49.7842 233.612 49.7313 235.044 49.6255C236.476 49.5197 237.929 49.3366 239.402 49.0762L239.719 51.3711C238.124 51.6478 236.546 51.8309 234.983 51.9204C233.429 52.0099 231.549 52.0547 229.343 52.0547H227.512V37.4551H237.84V39.6523ZM264.763 42.3867H252.092V44.584H265.252V46.7568H249.358V40.3359H261.98V38.3096H249.309V36.1123H264.763V42.3867ZM267.107 50.8096H258.342V57.4502H255.633V50.8096H246.941V48.6367H267.107V50.8096ZM285.755 57.4258H283.02V35.3555H285.755V57.4258ZM279.163 37.6992C279.163 41.2067 278.369 44.2869 276.782 46.9399C275.195 49.5848 272.563 51.778 268.884 53.5195L267.468 51.3467C270.309 49.9958 272.445 48.3804 273.877 46.5005C275.318 44.6125 276.16 42.3949 276.404 39.8477H268.591V37.6992H279.163Z" fill="black"/>
</svg>
