<svg width="365" height="93" viewBox="0 0 365 93" fill="none" xmlns="http://www.w3.org/2000/svg">
<rect x="1.10413" y="1.46143" width="362" height="90" fill="white" stroke="black" stroke-width="2"/>
<path d="M82.7399 37.7856H85.9137V45.2808H94.1412V37.7856H97.3395V55.4614H94.1412V47.9419H85.9137V55.4614H82.7399V37.7856ZM98.5797 37.7856H112.667V40.4468H107.222V55.4614H104.048V40.4468H98.5797V37.7856ZM117.813 37.7856L123.062 50.6274H123.282L128.531 37.7856H132.437V55.4614H129.385V43.3032H129.214L124.307 55.4126H122.037L117.13 43.2544H116.983V55.4614H113.907V37.7856H117.813ZM134.459 37.7856H137.632V52.7759H145.445V55.4614H134.459V37.7856ZM168.165 38.8843C168.165 40.2922 168.132 41.5413 168.067 42.6318C168.002 43.7142 167.839 44.9471 167.579 46.3306H170.63V48.5278H161.866V57.6587H159.131V48.5278H150.513V46.3306H164.82C165.089 44.9959 165.259 43.7834 165.333 42.6929C165.414 41.6024 165.455 40.4061 165.455 39.104H152.881V36.9067H168.165V38.8843ZM191.036 54.9731H170.87V52.7515H179.586V47.6733H182.296V52.7515H191.036V54.9731ZM189.302 39.5679H182.344C182.369 40.6177 182.723 41.6187 183.406 42.5708C184.098 43.5229 185.038 44.3327 186.226 45C187.414 45.6673 188.749 46.1108 190.23 46.3306L189.156 48.479C187.276 48.1372 185.612 47.4943 184.163 46.5503C182.723 45.6063 181.649 44.4507 180.941 43.0835C180.233 44.4751 179.162 45.6551 177.73 46.6235C176.298 47.592 174.662 48.2511 172.823 48.6011L171.749 46.4526C173.189 46.2085 174.495 45.7446 175.667 45.061C176.839 44.3774 177.763 43.5555 178.438 42.5952C179.114 41.6268 179.464 40.6177 179.488 39.5679H172.554V37.3462H189.302V39.5679ZM214.39 46.8677H211.68V41.2769H207.286V39.104H211.68V35.564H214.39V46.8677ZM214.39 53.5327H202.549V55.2173H215.098V57.3657H199.888V51.5063H211.705V49.9438H199.864V47.8198H214.39V53.5327ZM203.917 38.0542C203.917 38.9738 204.116 39.8527 204.515 40.6909C204.914 41.5291 205.504 42.2738 206.285 42.9248C207.066 43.5677 208.01 44.0601 209.117 44.4019L207.676 46.5015C206.496 46.1027 205.475 45.533 204.612 44.7925C203.75 44.0438 203.074 43.1608 202.586 42.1436C202.09 43.291 201.386 44.2839 200.474 45.1221C199.571 45.9521 198.48 46.5747 197.203 46.9897L195.787 44.8169C196.942 44.467 197.923 43.9543 198.729 43.2788C199.542 42.5952 200.153 41.8058 200.56 40.9106C200.975 40.0155 201.182 39.0633 201.182 38.0542V36.2964H203.917V38.0542ZM235.308 57.6343H232.72V35.564H235.308V57.6343ZM230.743 56.5845H228.155V49.2114H224.713V46.9897H228.155V43.7183H225.103C224.566 45.6063 223.687 47.3234 222.466 48.8696C221.254 50.4159 219.643 51.783 217.632 52.9712L216.046 51.0425C218.292 49.716 219.98 48.186 221.111 46.4526C222.251 44.7192 222.922 42.7173 223.126 40.4468H217.217V38.2495H225.811C225.811 39.3888 225.734 40.4712 225.579 41.4966H228.155V36.1011H230.743V56.5845ZM258.589 44.353H261.983V46.5991H258.589V57.6343H255.904V35.564H258.589V44.353ZM254.195 41.1304H241.182V38.9575H246.407V35.8813H249.117V38.9575H254.195V41.1304ZM247.774 42.5708C248.824 42.5708 249.768 42.7946 250.606 43.2422C251.452 43.6816 252.116 44.2961 252.596 45.0854C253.076 45.8748 253.316 46.77 253.316 47.771C253.316 48.772 253.076 49.6672 252.596 50.4565C252.116 51.2378 251.452 51.8481 250.606 52.2876C249.768 52.7271 248.824 52.9468 247.774 52.9468C246.708 52.9468 245.752 52.7271 244.905 52.2876C244.059 51.8481 243.396 51.2378 242.916 50.4565C242.436 49.6672 242.2 48.772 242.208 47.771C242.2 46.77 242.436 45.8748 242.916 45.0854C243.396 44.2961 244.059 43.6816 244.905 43.2422C245.752 42.7946 246.708 42.5708 247.774 42.5708ZM247.774 44.7925C247.196 44.7925 246.679 44.9146 246.224 45.1587C245.776 45.4028 245.426 45.7528 245.174 46.2085C244.922 46.6561 244.796 47.1769 244.796 47.771C244.796 48.3651 244.922 48.8859 245.174 49.3335C245.426 49.7729 245.776 50.1147 246.224 50.3589C246.679 50.5949 247.196 50.7088 247.774 50.7007C248.336 50.7088 248.836 50.5949 249.276 50.3589C249.723 50.1147 250.073 49.7729 250.325 49.3335C250.586 48.8859 250.72 48.3651 250.728 47.771C250.72 47.1769 250.586 46.6561 250.325 46.2085C250.073 45.7609 249.723 45.415 249.276 45.1709C248.836 44.9186 248.336 44.7925 247.774 44.7925ZM280.093 57.6343H277.359V35.564H280.093V57.6343ZM273.502 37.9077C273.502 41.4152 272.708 44.4954 271.121 47.1484C269.534 49.7933 266.902 51.9865 263.223 53.728L261.807 51.5552C264.647 50.2043 266.784 48.5889 268.216 46.709C269.656 44.821 270.499 42.6034 270.743 40.0562H262.93V37.9077H273.502Z" fill="black"/>
</svg>
