<svg width="295" height="97" viewBox="0 0 295 97" fill="none" xmlns="http://www.w3.org/2000/svg">
<rect x="3.24219" y="3.48877" width="289" height="90" fill="white" stroke="black" stroke-width="2"/>
<path d="M89.9072 39.2026C91.014 39.2026 91.9987 39.5241 92.8613 40.167C93.724 40.8018 94.3994 41.7091 94.8877 42.8892C95.3841 44.061 95.6364 45.4282 95.6445 46.9907C95.6364 48.5695 95.3841 49.9489 94.8877 51.1289C94.3994 52.3089 93.724 53.2163 92.8613 53.8511C91.9987 54.4858 91.014 54.8032 89.9072 54.8032C88.7923 54.8032 87.7995 54.4858 86.9287 53.8511C86.0579 53.2082 85.3784 52.2967 84.8901 51.1167C84.4019 49.9367 84.1618 48.5614 84.1699 46.9907C84.1618 45.4364 84.4019 44.0692 84.8901 42.8892C85.3784 41.7091 86.0579 40.8018 86.9287 40.167C87.7995 39.5241 88.7923 39.2026 89.9072 39.2026ZM89.9072 41.644C89.2887 41.644 88.7435 41.8597 88.2715 42.291C87.7995 42.7142 87.4333 43.3286 87.1729 44.1343C86.9124 44.9318 86.7822 45.884 86.7822 46.9907C86.7822 48.1056 86.9124 49.0659 87.1729 49.8716C87.4333 50.6772 87.7995 51.2957 88.2715 51.7271C88.7435 52.1502 89.2887 52.3618 89.9072 52.3618C90.5339 52.3618 91.0832 52.1502 91.5552 51.7271C92.0272 51.2957 92.3893 50.6772 92.6416 49.8716C92.902 49.0659 93.0322 48.1056 93.0322 46.9907C93.0322 45.884 92.902 44.9277 92.6416 44.1221C92.3893 43.3164 92.0272 42.702 91.5552 42.2788C91.0832 41.8556 90.5339 41.644 89.9072 41.644ZM101.26 46.063H104.653V48.3579H101.26V59.6616H98.5498V37.5913H101.26V46.063ZM122.69 59.686H119.956V37.5913H122.69V59.686ZM110.801 39.2026C111.908 39.2026 112.892 39.5241 113.755 40.167C114.626 40.8018 115.309 41.7091 115.806 42.8892C116.302 44.061 116.554 45.4282 116.562 46.9907C116.554 48.5614 116.302 49.9367 115.806 51.1167C115.317 52.2967 114.638 53.2082 113.767 53.8511C112.896 54.4858 111.908 54.8032 110.801 54.8032C109.686 54.8032 108.693 54.4858 107.822 53.8511C106.951 53.2082 106.268 52.2967 105.771 51.1167C105.283 49.9367 105.039 48.5614 105.039 46.9907C105.039 45.4282 105.283 44.061 105.771 42.8892C106.268 41.7091 106.951 40.8018 107.822 40.167C108.693 39.5241 109.686 39.2026 110.801 39.2026ZM110.801 41.644C110.174 41.644 109.621 41.8556 109.141 42.2788C108.669 42.702 108.302 43.3164 108.042 44.1221C107.782 44.9277 107.651 45.884 107.651 46.9907C107.651 48.1056 107.782 49.0659 108.042 49.8716C108.302 50.6772 108.669 51.2957 109.141 51.7271C109.621 52.1502 110.174 52.3618 110.801 52.3618C111.419 52.3618 111.965 52.1502 112.437 51.7271C112.909 51.2957 113.275 50.6772 113.535 49.8716C113.796 49.0659 113.926 48.1056 113.926 46.9907C113.926 45.884 113.796 44.9318 113.535 44.1343C113.275 43.3286 112.909 42.7142 112.437 42.291C111.965 41.8597 111.419 41.644 110.801 41.644ZM143.047 59.686H140.312V37.5913H143.047V59.686ZM136.699 41.8149H128.789V52.0688C130.938 52.0607 132.716 52.0119 134.124 51.9224C135.531 51.8328 136.935 51.6619 138.335 51.4097L138.604 53.6558C137.098 53.9325 135.56 54.1196 133.989 54.2173C132.427 54.3149 130.409 54.3638 127.935 54.3638H126.055V39.5933H136.699V41.8149ZM151.074 39.2026C152.067 39.2026 152.962 39.4671 153.76 39.9961C154.557 40.5251 155.208 41.2819 155.713 42.2666C156.217 43.2432 156.531 44.3947 156.653 45.7212H160.864V37.5913H163.55V59.686H160.864V47.9185H156.689C156.592 49.3182 156.295 50.5389 155.798 51.5806C155.302 52.6141 154.647 53.4116 153.833 53.9731C153.019 54.5265 152.1 54.8032 151.074 54.8032C149.967 54.8032 148.987 54.4858 148.132 53.8511C147.278 53.2163 146.611 52.3089 146.13 51.1289C145.65 49.9489 145.41 48.5695 145.41 46.9907C145.41 45.4282 145.65 44.061 146.13 42.8892C146.611 41.7091 147.278 40.8018 148.132 40.167C148.995 39.5241 149.976 39.2026 151.074 39.2026ZM151.074 41.644C150.464 41.644 149.927 41.8597 149.463 42.291C148.999 42.7142 148.641 43.3286 148.389 44.1343C148.136 44.9318 148.014 45.884 148.022 46.9907C148.014 48.1056 148.136 49.0659 148.389 49.8716C148.641 50.6772 148.999 51.2957 149.463 51.7271C149.927 52.1502 150.464 52.3618 151.074 52.3618C151.685 52.3618 152.218 52.1502 152.673 51.7271C153.137 51.2957 153.495 50.6772 153.748 49.8716C154.008 49.0659 154.142 48.1056 154.15 46.9907C154.142 45.884 154.008 44.9277 153.748 44.1221C153.495 43.3164 153.137 42.702 152.673 42.2788C152.218 41.8556 151.685 41.644 151.074 41.644ZM173.501 42.2788H177.139V39.105H179.653V49.5054H170.938V39.105H173.501V42.2788ZM177.139 47.3569V44.4028H173.501V47.3569H177.139ZM188.955 51.019H186.367V45.355H184.17V50.4087H181.631V38.0308H184.17V43.1333H186.367V37.6157H188.955V51.019ZM181.509 51.4097C183.047 51.4178 184.382 51.5887 185.513 51.9224C186.652 52.2479 187.527 52.7199 188.137 53.3384C188.756 53.9569 189.069 54.6974 189.077 55.5601C189.069 56.4064 188.756 57.1348 188.137 57.7451C187.519 58.3555 186.64 58.8234 185.5 59.1489C184.369 59.4744 183.039 59.6372 181.509 59.6372C179.963 59.6372 178.62 59.4744 177.48 59.1489C176.341 58.8234 175.466 58.3555 174.856 57.7451C174.246 57.1348 173.94 56.4064 173.94 55.5601C173.94 54.6974 174.246 53.9569 174.856 53.3384C175.466 52.7199 176.337 52.2479 177.468 51.9224C178.608 51.5887 179.954 51.4178 181.509 51.4097ZM181.509 53.5093C179.971 53.5093 178.774 53.6842 177.92 54.0342C177.074 54.3841 176.65 54.8927 176.65 55.5601C176.65 56.203 177.074 56.6953 177.92 57.0371C178.774 57.3708 179.971 57.5376 181.509 57.5376C183.039 57.5376 184.227 57.3708 185.073 57.0371C185.92 56.6953 186.343 56.203 186.343 55.5601C186.343 54.8927 185.92 54.3841 185.073 54.0342C184.227 53.6842 183.039 53.5093 181.509 53.5093ZM208.335 42.2788C208.335 43.6867 208.319 44.8789 208.286 45.8555C208.254 46.832 208.164 47.9347 208.018 49.1636C207.879 50.3924 207.66 51.7352 207.358 53.1919L204.648 52.9478C205.063 51.1655 205.344 49.4362 205.491 47.7598L192.49 48.4312L192.124 46.2339L205.625 45.7212C205.658 44.9318 205.674 43.7843 205.674 42.2788V41.8394H192.783V39.6421H208.335V42.2788ZM210.557 56.854H190.439V54.6323H210.557V56.854Z" fill="black"/>
</svg>
