<svg width="372" height="97" viewBox="0 0 372 97" fill="none" xmlns="http://www.w3.org/2000/svg">
<rect x="2.61523" y="3.48877" width="366" height="90" fill="white" stroke="black" stroke-width="2"/>
<path d="M101.78 59.6616H99.0459V37.5913H101.78V59.6616ZM96.4092 41.9614H94.2852V51.8613C95.457 51.7637 96.4906 51.6619 97.3857 51.5562L97.5322 53.5825C95.4082 53.9243 93.1906 54.1522 90.8794 54.2661C88.5682 54.38 86.1309 54.437 83.5674 54.437L83.2988 52.2153L86.0332 52.1909V41.9614H83.8848V39.7397H96.4092V41.9614ZM88.6455 52.1299C89.6383 52.1055 90.6312 52.0688 91.624 52.02V41.9614H88.6455V52.1299ZM121.624 50.1157H106.146V39.52H121.453V41.7173H108.831V47.9429H121.624V50.1157ZM123.87 56.854H103.704V54.6079H123.87V56.854ZM127.479 42.2544H131.116V39.0073H133.631V49.5298H124.915V39.0073H127.479V42.2544ZM131.116 47.3813V44.354H127.479V47.3813H131.116ZM142.933 50.8726H140.345V45.3306H138.147V50.7505H135.608V38.0308H138.147V43.1089H140.345V37.6157H142.933V50.8726ZM142.933 59.6616H140.223V54.1929H127.82V51.9956H142.933V59.6616ZM148.152 52.0688C148.16 51.0679 148.258 50.2581 148.445 49.6396C148.632 49.0212 148.893 48.5288 149.227 48.1626C149.568 47.7882 150.024 47.422 150.594 47.064C151.172 46.6978 151.619 46.299 151.937 45.8677C152.262 45.4282 152.425 44.9237 152.425 44.354C152.425 43.9064 152.319 43.5158 152.107 43.1821C151.896 42.8403 151.607 42.5758 151.241 42.3887C150.883 42.2015 150.48 42.1079 150.032 42.1079C149.609 42.1079 149.214 42.1974 148.848 42.3765C148.482 42.5555 148.181 42.8281 147.945 43.1943C147.717 43.5605 147.591 44.0041 147.566 44.5249H144.515C144.539 43.467 144.799 42.5677 145.296 41.8271C145.792 41.0785 146.456 40.5169 147.286 40.1426C148.116 39.7601 149.039 39.5688 150.057 39.5688C151.147 39.5688 152.111 39.7642 152.95 40.1548C153.796 40.5373 154.451 41.0866 154.915 41.8027C155.387 42.5189 155.623 43.353 155.623 44.3052C155.623 45.2492 155.399 46.063 154.952 46.7466C154.512 47.4302 153.873 48.0243 153.035 48.5288C152.547 48.8218 152.156 49.127 151.863 49.4443C151.578 49.7536 151.367 50.1157 151.229 50.5308C151.09 50.9458 151.017 51.4585 151.009 52.0688V52.2886H148.152V52.0688ZM149.666 57.6841C149.324 57.6841 149.007 57.5986 148.714 57.4277C148.421 57.2568 148.189 57.0249 148.018 56.7319C147.847 56.439 147.762 56.1216 147.762 55.7798C147.762 55.4461 147.847 55.1369 148.018 54.8521C148.189 54.5591 148.421 54.3271 148.714 54.1562C149.007 53.9854 149.324 53.8999 149.666 53.8999C149.992 53.8999 150.297 53.9854 150.582 54.1562C150.875 54.3271 151.106 54.5591 151.277 54.8521C151.456 55.1369 151.546 55.4461 151.546 55.7798C151.546 56.1216 151.456 56.439 151.277 56.7319C151.106 57.0249 150.875 57.2568 150.582 57.4277C150.297 57.5986 149.992 57.6841 149.666 57.6841ZM170.848 38.8364C172.418 38.8364 173.826 39.0846 175.071 39.5811C176.325 40.0775 177.305 40.7773 178.013 41.6807C178.721 42.584 179.075 43.6216 179.075 44.7935C179.075 45.8758 178.782 46.8402 178.196 47.6865C177.618 48.5329 176.809 49.2165 175.767 49.7373C174.734 50.25 173.541 50.5755 172.19 50.7139V54.7544H180.979V56.9761H160.813V54.7544H169.505V50.7139C168.162 50.5755 166.974 50.25 165.94 49.7373C164.907 49.2165 164.101 48.5329 163.523 47.6865C162.946 46.8402 162.661 45.8758 162.669 44.7935C162.661 43.6216 163.007 42.584 163.707 41.6807C164.415 40.7773 165.391 40.0775 166.636 39.5811C167.881 39.0846 169.285 38.8364 170.848 38.8364ZM170.848 41.0337C169.773 41.0256 168.817 41.1761 167.979 41.4854C167.141 41.7865 166.486 42.2259 166.014 42.8037C165.55 43.3734 165.322 44.0366 165.33 44.7935C165.322 45.5747 165.55 46.2542 166.014 46.832C166.486 47.4017 167.141 47.8411 167.979 48.1504C168.817 48.4515 169.773 48.6021 170.848 48.6021C171.938 48.6021 172.903 48.4515 173.741 48.1504C174.587 47.8411 175.242 47.4017 175.706 46.832C176.178 46.2542 176.414 45.5747 176.414 44.7935C176.414 44.0285 176.178 43.3612 175.706 42.7915C175.234 42.2218 174.575 41.7865 173.729 41.4854C172.89 41.1761 171.93 41.0256 170.848 41.0337ZM199.529 59.6616H196.795V37.5913H199.529V59.6616ZM194.866 43.1821H181.634V41.0093H186.883V37.8599H189.642V41.0093H194.866V43.1821ZM188.299 44.5981C189.365 44.5981 190.325 44.8219 191.18 45.2695C192.034 45.709 192.701 46.3234 193.182 47.1128C193.67 47.9022 193.914 48.7974 193.914 49.7983C193.914 50.7993 193.67 51.6945 193.182 52.4839C192.701 53.2651 192.034 53.8755 191.18 54.3149C190.325 54.7544 189.365 54.9741 188.299 54.9741C187.225 54.9741 186.26 54.7544 185.406 54.3149C184.559 53.8755 183.892 53.2651 183.404 52.4839C182.924 51.6945 182.684 50.7993 182.684 49.7983C182.684 48.7974 182.924 47.9022 183.404 47.1128C183.892 46.3234 184.559 45.709 185.406 45.2695C186.26 44.8219 187.225 44.5981 188.299 44.5981ZM188.299 46.8198C187.713 46.8198 187.192 46.9419 186.736 47.186C186.281 47.4302 185.923 47.7801 185.662 48.2358C185.402 48.6834 185.271 49.2043 185.271 49.7983C185.271 50.3924 185.402 50.9132 185.662 51.3608C185.923 51.8003 186.281 52.1421 186.736 52.3862C187.192 52.6222 187.713 52.7362 188.299 52.728C188.885 52.7362 189.402 52.6222 189.849 52.3862C190.305 52.1421 190.659 51.8003 190.911 51.3608C191.172 50.9132 191.302 50.3924 191.302 49.7983C191.302 49.2043 191.172 48.6834 190.911 48.2358C190.659 47.7801 190.305 47.4302 189.849 47.186C189.402 46.9419 188.885 46.8198 188.299 46.8198ZM220.008 59.686H217.298V50.6284H213.27V48.4067H217.298V44.6226H213.343V42.4009H217.298V37.5913H220.008V59.686ZM212.098 47.7476H205.018V52.4351C206.604 52.4188 208.053 52.37 209.363 52.2886C210.682 52.1991 212.041 52.0526 213.44 51.8491L213.66 54.0708C212.098 54.3149 210.592 54.4777 209.144 54.5591C207.695 54.6405 205.994 54.6812 204.041 54.6812H202.332V45.6235H209.437V41.6685H202.259V39.4956H212.098V47.7476ZM237.942 46.3804H246.707V48.5776H226.541V46.3804H235.257V44.1587H237.942V46.3804ZM244.876 40.2769H238.553C238.724 40.8058 239.122 41.2941 239.749 41.7417C240.376 42.1893 241.198 42.5636 242.215 42.8647C243.24 43.1577 244.412 43.3449 245.73 43.4263L244.876 45.4526C242.833 45.298 241.092 44.887 239.651 44.2197C238.211 43.5524 237.202 42.6979 236.624 41.6562C236.046 42.6979 235.033 43.5524 233.584 44.2197C232.144 44.8789 230.407 45.2899 228.372 45.4526L227.493 43.4263C228.779 43.353 229.931 43.1699 230.948 42.877C231.973 42.5758 232.799 42.2015 233.426 41.7539C234.061 41.2982 234.472 40.8058 234.659 40.2769H228.396V38.2017H244.876V40.2769ZM244.803 53.0942H228.396V51.0435H235.232V49.2612H237.967V51.0435H244.803V53.0942ZM236.575 53.8999C238.732 53.8999 240.396 54.1481 241.568 54.6445C242.748 55.141 243.338 55.8612 243.338 56.8052C243.338 57.7573 242.748 58.4816 241.568 58.978C240.396 59.4826 238.732 59.7349 236.575 59.7349C234.41 59.7349 232.75 59.4867 231.595 58.9902C230.439 58.4938 229.861 57.7655 229.861 56.8052C229.861 55.8612 230.439 55.141 231.595 54.6445C232.75 54.1481 234.41 53.8999 236.575 53.8999ZM236.575 55.731C235.265 55.731 234.28 55.8164 233.621 55.9873C232.97 56.1582 232.645 56.4308 232.645 56.8052C232.645 57.5539 233.955 57.9282 236.575 57.9282C239.188 57.9282 240.506 57.5539 240.53 56.8052C240.522 56.4308 240.193 56.1582 239.542 55.9873C238.89 55.8164 237.902 55.731 236.575 55.731ZM252.854 39.2026C253.961 39.2026 254.946 39.5241 255.809 40.167C256.671 40.8018 257.347 41.7091 257.835 42.8892C258.331 44.061 258.584 45.4282 258.592 46.9907C258.584 48.5695 258.331 49.9489 257.835 51.1289C257.347 52.3089 256.671 53.2163 255.809 53.8511C254.946 54.4858 253.961 54.8032 252.854 54.8032C251.74 54.8032 250.747 54.4858 249.876 53.8511C249.005 53.2082 248.326 52.2967 247.837 51.1167C247.349 49.9367 247.109 48.5614 247.117 46.9907C247.109 45.4364 247.349 44.0692 247.837 42.8892C248.326 41.7091 249.005 40.8018 249.876 40.167C250.747 39.5241 251.74 39.2026 252.854 39.2026ZM252.854 41.644C252.236 41.644 251.691 41.8597 251.219 42.291C250.747 42.7142 250.381 43.3286 250.12 44.1343C249.86 44.9318 249.729 45.884 249.729 46.9907C249.729 48.1056 249.86 49.0659 250.12 49.8716C250.381 50.6772 250.747 51.2957 251.219 51.7271C251.691 52.1502 252.236 52.3618 252.854 52.3618C253.481 52.3618 254.03 52.1502 254.502 51.7271C254.974 51.2957 255.337 50.6772 255.589 49.8716C255.849 49.0659 255.979 48.1056 255.979 46.9907C255.979 45.884 255.849 44.9277 255.589 44.1221C255.337 43.3164 254.974 42.702 254.502 42.2788C254.03 41.8556 253.481 41.644 252.854 41.644ZM264.207 46.063H267.601V48.3579H264.207V59.6616H261.497V37.5913H264.207V46.063ZM287.444 56.9761H267.278V54.7544H271.941V49.1758C271.046 48.6549 270.35 48.008 269.854 47.2349C269.366 46.4618 269.126 45.591 269.134 44.6226C269.126 43.4751 269.472 42.4578 270.171 41.5708C270.871 40.6838 271.844 40.0002 273.089 39.52C274.334 39.0317 275.742 38.7876 277.312 38.7876C278.891 38.7876 280.303 39.0317 281.548 39.52C282.802 40.0002 283.778 40.6838 284.478 41.5708C285.186 42.4497 285.54 43.467 285.54 44.6226C285.54 45.5666 285.3 46.4251 284.82 47.1982C284.348 47.9632 283.676 48.6021 282.806 49.1147V54.7544H287.444V56.9761ZM277.312 40.936C276.214 40.936 275.245 41.0866 274.407 41.3877C273.577 41.6807 272.93 42.1038 272.466 42.6572C272.011 43.2106 271.787 43.8657 271.795 44.6226C271.787 45.3713 272.011 46.0223 272.466 46.5757C272.93 47.1291 273.581 47.5563 274.419 47.8574C275.258 48.1585 276.222 48.3091 277.312 48.3091C278.403 48.3091 279.367 48.1585 280.206 47.8574C281.052 47.5563 281.707 47.1291 282.171 46.5757C282.643 46.0223 282.879 45.3713 282.879 44.6226C282.879 43.8739 282.643 43.2228 282.171 42.6694C281.707 42.1079 281.056 41.6807 280.218 41.3877C279.38 41.0866 278.411 40.936 277.312 40.936ZM280.047 54.7544V50.1523C279.184 50.3395 278.273 50.4331 277.312 50.4331C276.393 50.4331 275.498 50.3436 274.627 50.1646V54.7544H280.047Z" fill="black"/>
</svg>
