<svg width="412" height="97" viewBox="0 0 412 97" fill="none" xmlns="http://www.w3.org/2000/svg">
<rect x="3.25464" y="3.43018" width="406" height="90" fill="white" stroke="black" stroke-width="2"/>
<path d="M101.38 42.9175H104.456V45.188H101.38V50.6323H98.6702V37.3267H101.38V42.9175ZM101.38 59.1284H87.1223V51.6821H101.38V59.1284ZM89.8079 56.9312H98.6946V53.8306H89.8079V56.9312ZM97.0833 41.6235H83.9973V39.4507H89.1975V37.1802H91.9075V39.4507H97.0833V41.6235ZM90.5403 42.4292C91.5901 42.4292 92.5219 42.596 93.3357 42.9297C94.1495 43.2633 94.7843 43.7313 95.24 44.3335C95.6957 44.9276 95.9277 45.6112 95.9358 46.3843C95.9277 47.1655 95.6957 47.8573 95.24 48.4595C94.7924 49.0535 94.1617 49.5174 93.3479 49.8511C92.5341 50.1766 91.5982 50.3394 90.5403 50.3394C89.4742 50.3394 88.5302 50.1766 87.7083 49.8511C86.8944 49.5174 86.2597 49.0535 85.804 48.4595C85.3482 47.8573 85.1204 47.1655 85.1204 46.3843C85.1204 45.6112 85.3482 44.9276 85.804 44.3335C86.2597 43.7313 86.8985 43.2633 87.7205 42.9297C88.5424 42.596 89.4823 42.4292 90.5403 42.4292ZM90.5403 44.48C89.6939 44.48 89.0185 44.6509 88.5139 44.9927C88.0094 45.3263 87.7571 45.7902 87.7571 46.3843C87.7571 46.9865 88.0053 47.4585 88.5017 47.8003C89.0063 48.1421 89.6858 48.313 90.5403 48.313C91.3948 48.313 92.0743 48.1421 92.5789 47.8003C93.0916 47.4585 93.3479 46.9865 93.3479 46.3843C93.3479 45.7902 93.0916 45.3263 92.5789 44.9927C92.0743 44.6509 91.3948 44.48 90.5403 44.48ZM109.774 39.9146C109.766 41.8514 109.664 43.6377 109.469 45.2734C109.273 46.9092 108.915 48.5124 108.394 50.083C107.882 51.6455 107.161 53.1144 106.234 54.4897L104.11 53.3423C105.257 51.7228 106.071 50.022 106.551 48.2397C107.039 46.4494 107.328 44.4067 107.418 42.1118H104.744V39.9146H109.774ZM114.705 39.9146C114.697 41.062 114.677 42.0955 114.644 43.0151C114.612 43.9347 114.547 44.8381 114.449 45.7251H116.683V37.8638H119.246V58.3472H116.683V47.9224H114.156C113.627 50.9578 112.63 53.5539 111.165 55.7104L109.09 54.5386C109.928 53.3423 110.579 52.0768 111.043 50.7422C111.515 49.3994 111.841 48.0404 112.02 46.665C112.207 45.2897 112.321 43.772 112.362 42.1118H110.433V39.9146H114.705ZM123.519 59.397H120.906V37.3267H123.519V59.397ZM135.618 38.0347C136.725 38.0347 137.722 38.2503 138.609 38.6816C139.496 39.1048 140.192 39.6948 140.697 40.4517C141.209 41.2085 141.47 42.063 141.478 43.0151C141.47 43.9754 141.209 44.834 140.697 45.5908C140.192 46.3477 139.496 46.9377 138.609 47.3608C137.722 47.784 136.725 47.9956 135.618 47.9956C134.503 47.9956 133.498 47.784 132.603 47.3608C131.716 46.9377 131.02 46.3477 130.516 45.5908C130.011 44.834 129.759 43.9754 129.759 43.0151C129.759 42.063 130.011 41.2085 130.516 40.4517C131.02 39.6948 131.72 39.1048 132.615 38.6816C133.511 38.2503 134.512 38.0347 135.618 38.0347ZM135.618 40.2808C135 40.2808 134.447 40.3947 133.958 40.6226C133.47 40.8423 133.087 41.1597 132.811 41.5747C132.534 41.9816 132.396 42.4618 132.396 43.0151C132.396 43.5767 132.534 44.069 132.811 44.4922C133.087 44.9072 133.47 45.2287 133.958 45.4565C134.447 45.6844 135 45.7983 135.618 45.7983C136.237 45.7983 136.79 45.6844 137.279 45.4565C137.767 45.2287 138.149 44.9072 138.426 44.4922C138.703 44.069 138.841 43.5767 138.841 43.0151C138.841 42.4618 138.703 41.9816 138.426 41.5747C138.149 41.1597 137.767 40.8423 137.279 40.6226C136.79 40.3947 136.237 40.2808 135.618 40.2808ZM147.752 48.4839H145.018V37.3267H147.752V48.4839ZM147.752 55.1978H135.814V56.98H148.411V59.1284H133.153V53.1958H145.042V51.5601H133.104V49.436H147.752V55.1978ZM167.132 42.2583H170.233V44.4556H167.132V49.314H164.422V37.2778H167.132V42.2583ZM167.132 55.6128H155.413V57.1753H167.816V59.2017H152.728V53.7329H164.422V52.2681H152.703V50.2905H167.132V55.6128ZM162.835 41.1841H149.749V39.1089H154.949V37.1558H157.659V39.1089H162.835V41.1841ZM156.292 41.8677C157.375 41.8758 158.319 42.0304 159.124 42.3315C159.938 42.6245 160.565 43.0436 161.004 43.5889C161.452 44.126 161.68 44.7567 161.688 45.481C161.68 46.2297 161.452 46.8766 161.004 47.4219C160.565 47.959 159.942 48.374 159.136 48.667C158.331 48.9518 157.383 49.0942 156.292 49.0942C155.202 49.0942 154.25 48.9518 153.436 48.667C152.622 48.374 151.991 47.959 151.544 47.4219C151.096 46.8766 150.872 46.2297 150.872 45.481C150.872 44.7567 151.096 44.126 151.544 43.5889C151.991 43.0436 152.622 42.6245 153.436 42.3315C154.258 42.0304 155.21 41.8758 156.292 41.8677ZM156.292 43.8208C155.43 43.8208 154.75 43.9673 154.254 44.2603C153.757 44.5532 153.509 44.9601 153.509 45.481C153.509 46.0099 153.757 46.4209 154.254 46.7139C154.75 46.9987 155.43 47.1411 156.292 47.1411C157.163 47.1411 157.847 46.9987 158.343 46.7139C158.848 46.4209 159.1 46.0099 159.1 45.481C159.1 44.9601 158.848 44.5532 158.343 44.2603C157.838 43.9673 157.155 43.8208 156.292 43.8208ZM189.486 46.0425H191.488V37.3267H194.051V59.397H191.488V48.2642H189.486V58.3472H186.995V37.7417H189.486V46.0425ZM179.964 42.2095H177.718V51.6089C178.475 51.5519 179.24 51.4299 180.013 51.2427L180.233 53.5132C179.484 53.6759 178.796 53.7817 178.17 53.8306C177.543 53.8794 176.88 53.9038 176.18 53.9038H175.228V40.0122H179.964V42.2095ZM185.726 42.2095H183.309V51.6333C184.245 51.5926 185.156 51.4543 186.043 51.2183L186.239 53.4888C185.474 53.6678 184.757 53.7817 184.09 53.8306C183.423 53.8794 182.666 53.9038 181.82 53.9038H180.867V40.0122H185.726V42.2095ZM210.96 41.5503H203.612V51.8286C205.418 51.8123 206.977 51.7554 208.287 51.6577C209.597 51.5601 210.911 51.3892 212.23 51.145L212.523 53.3423C211.05 53.6353 209.585 53.8306 208.128 53.9282C206.671 54.0259 204.84 54.0747 202.635 54.0747H200.877V39.3286H210.96V41.5503ZM218.333 59.4214H215.623V47.312H209.788V45.0903H215.623V37.3267H218.333V59.4214ZM243.177 50.022H240.491V37.3267H243.177V50.022ZM243.641 53.4644H237.354C237.476 54.0259 237.843 54.5752 238.453 55.1123C239.063 55.6494 239.885 56.1133 240.919 56.5039C241.96 56.8945 243.144 57.1509 244.471 57.2729L243.519 59.3237C241.761 59.1447 240.223 58.7378 238.905 58.103C237.586 57.4683 236.585 56.6829 235.902 55.7471C235.226 56.6911 234.217 57.4805 232.874 58.1152C231.54 58.75 229.985 59.1528 228.211 59.3237L227.283 57.3218C228.618 57.1997 229.806 56.9434 230.848 56.5527C231.898 56.154 232.732 55.686 233.35 55.1489C233.969 54.6037 234.335 54.0422 234.449 53.4644H228.187V51.3892H234.534V49.4849H237.269V51.3892H243.641V53.4644ZM228.651 41.2329H233.9V38.23H236.61V48.2153H225.965V38.23L228.651 38.23V41.2329ZM233.9 46.0669V43.3081H228.651V46.0669H233.9ZM265.755 48.0688H262.484V59.3481H259.774V37.3267H262.484V45.8472H265.755V48.0688ZM248.665 51.6577C252.01 51.6007 255.143 51.2671 258.065 50.6567L258.358 52.9517C255.143 53.5864 251.636 53.9038 247.835 53.9038H245.98V39.4751H248.665V51.6577ZM283.426 45.7251H268.143V38.1323H270.828V43.5767H283.426V45.7251ZM285.697 50.437L265.531 50.437V48.2886H285.697V50.437ZM283.573 58.8843L267.948 58.8843V52.3901H270.657V56.687L283.573 56.687V58.8843ZM301.922 41.4526H294.256V45.3833H301.531V47.5317H294.256V52.0728C296.103 52.0565 297.723 52.0036 299.115 51.9141C300.506 51.8245 301.93 51.6577 303.387 51.4136L303.631 53.6108C302.02 53.8631 300.429 54.0381 298.858 54.1357C297.296 54.2253 295.452 54.27 293.328 54.27H291.497V39.231H301.922V41.4526ZM307.879 45.8716H311.273V48.1421H307.879V59.397H305.169V37.3267H307.879V45.8716ZM329.334 49.1675H326.6V37.3267H329.334V49.1675ZM317.42 52.4634H326.624V50.1929H329.334V59.1284H314.735V50.1929H317.42V52.4634ZM326.624 56.9312V54.5874H317.42V56.9312H326.624ZM317.298 38.3032C318.421 38.2951 319.434 38.5107 320.338 38.9502C321.241 39.3815 321.949 39.9919 322.462 40.7812C322.974 41.5706 323.231 42.4699 323.231 43.479C323.231 44.4637 322.97 45.3467 322.449 46.1279C321.937 46.9092 321.229 47.5195 320.325 47.959C319.43 48.3903 318.421 48.606 317.298 48.606C316.167 48.606 315.15 48.3903 314.246 47.959C313.343 47.5195 312.631 46.9092 312.11 46.1279C311.597 45.3467 311.341 44.4637 311.341 43.479C311.341 42.4699 311.597 41.5706 312.11 40.7812C312.631 39.9919 313.343 39.3815 314.246 38.9502C315.15 38.5107 316.167 38.2951 317.298 38.3032ZM317.298 40.5737C316.655 40.5737 316.081 40.6917 315.577 40.9277C315.08 41.1637 314.69 41.5015 314.405 41.9409C314.128 42.3804 313.994 42.8931 314.002 43.479C313.994 44.0568 314.128 44.5654 314.405 45.0049C314.69 45.4362 315.08 45.7739 315.577 46.0181C316.081 46.2541 316.655 46.3761 317.298 46.3843C317.933 46.3761 318.498 46.2541 318.995 46.0181C319.491 45.7739 319.878 45.4362 320.155 45.0049C320.431 44.5654 320.57 44.0568 320.57 43.479C320.57 42.8931 320.431 42.3804 320.155 41.9409C319.878 41.5015 319.491 41.1637 318.995 40.9277C318.498 40.6917 317.933 40.5737 317.298 40.5737Z" fill="black"/>
</svg>
