<svg width="262" height="93" viewBox="0 0 262 93" fill="none" xmlns="http://www.w3.org/2000/svg">
<rect x="1.6709" y="1.52051" width="259" height="90" fill="white" stroke="black" stroke-width="2"/>
<path d="M86.4805 55.5205H83.3066V37.8447H86.4805V55.5205ZM91.5049 55.5205H88.3799V37.8447H91.5049V55.5205ZM96.3584 55.5205H93.2334V37.8447H96.3584V55.5205ZM106.559 42.2637H109.659V55.5205H106.656V53.1768H106.51C106.192 53.9417 105.688 54.5521 104.996 55.0078C104.312 55.4635 103.491 55.6914 102.53 55.6914C101.66 55.6914 100.89 55.4961 100.223 55.1055C99.5558 54.7148 99.035 54.1452 98.6606 53.3965C98.2863 52.6478 98.0951 51.7526 98.0869 50.7109V42.2637H101.212V50.2227C101.212 50.776 101.314 51.2643 101.517 51.6875C101.729 52.1025 102.022 52.424 102.396 52.6519C102.778 52.8716 103.222 52.9814 103.727 52.9814C104.199 52.9814 104.65 52.8675 105.082 52.6396C105.521 52.4036 105.875 52.0578 106.144 51.6021C106.42 51.1463 106.559 50.597 106.559 49.9541V42.2637ZM118.907 46.0479C118.81 45.5433 118.557 45.1445 118.15 44.8516C117.743 44.5586 117.215 44.4121 116.563 44.4121C116.124 44.4121 115.725 44.4813 115.367 44.6196C115.017 44.7498 114.745 44.937 114.549 45.1812C114.354 45.4172 114.26 45.6816 114.269 45.9746C114.244 46.6826 114.871 47.1872 116.148 47.4883L118.395 47.9521C119.656 48.237 120.592 48.6724 121.202 49.2583C121.812 49.8442 122.122 50.6133 122.13 51.5654C122.122 52.3955 121.886 53.132 121.422 53.7749C120.958 54.4097 120.299 54.9061 119.444 55.2642C118.598 55.6141 117.605 55.7891 116.466 55.7891C114.798 55.7891 113.471 55.4351 112.486 54.7271C111.51 54.0109 110.94 53.014 110.777 51.7363H113.951C114.049 52.2979 114.309 52.721 114.732 53.0059C115.164 53.2826 115.742 53.4209 116.466 53.4209C117.215 53.4209 117.817 53.2785 118.272 52.9937C118.728 52.7088 118.956 52.3223 118.956 51.834C118.956 51.4515 118.797 51.1382 118.48 50.894C118.171 50.6418 117.687 50.4424 117.027 50.2959L114.903 49.832C113.674 49.5879 112.743 49.1525 112.108 48.5259C111.481 47.8993 111.168 47.1058 111.168 46.1455C111.168 45.3398 111.388 44.6318 111.827 44.0215C112.267 43.403 112.889 42.9269 113.695 42.5933C114.5 42.2596 115.44 42.0928 116.515 42.0928C117.556 42.0928 118.464 42.2555 119.237 42.5811C120.018 42.8984 120.632 43.3542 121.08 43.9482C121.528 44.5423 121.788 45.2422 121.861 46.0479H118.907ZM129.864 44.6562H127.252V51.541C127.252 52.127 127.374 52.5298 127.618 52.7495C127.87 52.9692 128.22 53.0791 128.668 53.0791C129.059 53.0791 129.514 53.0628 130.035 53.0303V55.5693C129.628 55.6507 129.042 55.6914 128.277 55.6914C127.472 55.6914 126.756 55.5612 126.129 55.3008C125.51 55.0322 125.022 54.6253 124.664 54.0801C124.314 53.5348 124.143 52.8594 124.151 52.0537V44.6562H122.247V42.2637H124.151V39.0898H127.252V42.2637H129.864V44.6562ZM131.007 42.2637H134.034V44.4609H134.181C134.409 43.7122 134.819 43.1263 135.414 42.7031C136.008 42.2799 136.687 42.0684 137.452 42.0684C137.908 42.0684 138.282 42.0928 138.575 42.1416V45.0225C138.437 44.9736 138.225 44.9289 137.94 44.8882C137.656 44.8475 137.387 44.8271 137.135 44.8271C136.565 44.8271 136.052 44.9492 135.597 45.1934C135.141 45.4375 134.783 45.7793 134.522 46.2188C134.262 46.6582 134.132 47.1546 134.132 47.708V55.5205H131.007V42.2637ZM138.326 51.7852C138.326 50.418 138.786 49.4333 139.706 48.8311C140.633 48.2207 141.817 47.8708 143.258 47.7812C144.666 47.6836 145.797 47.6185 146.651 47.5859V46.5361C146.651 45.877 146.444 45.3683 146.029 45.0103C145.614 44.644 145.024 44.4609 144.259 44.4609C143.583 44.4609 143.03 44.6034 142.599 44.8882C142.167 45.173 141.891 45.5596 141.769 46.0479H138.766C138.839 45.291 139.107 44.6156 139.571 44.0215C140.035 43.4193 140.674 42.9473 141.488 42.6055C142.302 42.2637 143.25 42.0928 144.332 42.0928C145.26 42.0928 146.131 42.2393 146.944 42.5322C147.766 42.8171 148.438 43.3013 148.958 43.9849C149.487 44.6603 149.752 45.5514 149.752 46.6582V55.5205H146.773V53.6895H146.676C146.35 54.3079 145.862 54.8125 145.211 55.2031C144.56 55.5938 143.746 55.7891 142.77 55.7891C141.915 55.7891 141.15 55.6344 140.475 55.3252C139.807 55.016 139.282 54.5602 138.9 53.958C138.517 53.3558 138.326 52.6315 138.326 51.7852ZM141.329 51.7607C141.329 52.3223 141.533 52.7536 141.939 53.0547C142.346 53.3477 142.892 53.4941 143.575 53.4941C144.186 53.4941 144.727 53.3721 145.199 53.1279C145.671 52.8838 146.033 52.5542 146.285 52.1392C146.546 51.716 146.676 51.2562 146.676 50.7598L146.664 49.6733L143.746 49.8564C142.981 49.9215 142.387 50.1128 141.964 50.4302C141.541 50.7476 141.329 51.1911 141.329 51.7607ZM158.048 44.6562H155.436V51.541C155.436 52.127 155.558 52.5298 155.802 52.7495C156.054 52.9692 156.404 53.0791 156.852 53.0791C157.242 53.0791 157.698 53.0628 158.219 53.0303V55.5693C157.812 55.6507 157.226 55.6914 156.461 55.6914C155.655 55.6914 154.939 55.5612 154.312 55.3008C153.694 55.0322 153.206 54.6253 152.848 54.0801C152.498 53.5348 152.327 52.8594 152.335 52.0537V44.6562H150.431V42.2637H152.335V39.0898H155.436V42.2637H158.048V44.6562ZM164.83 55.7891C163.561 55.7891 162.446 55.5042 161.485 54.9346C160.525 54.3649 159.785 53.5674 159.264 52.542C158.743 51.5085 158.482 50.3122 158.482 48.9531C158.482 47.5859 158.743 46.3856 159.264 45.3521C159.785 44.3185 160.525 43.5169 161.485 42.9473C162.446 42.3776 163.561 42.0928 164.83 42.0928C166.108 42.0928 167.227 42.3776 168.187 42.9473C169.147 43.5169 169.884 44.3185 170.396 45.3521C170.917 46.3856 171.178 47.5859 171.178 48.9531C171.178 50.3122 170.917 51.5085 170.396 52.542C169.876 53.5755 169.135 54.3771 168.175 54.9468C167.223 55.5083 166.108 55.7891 164.83 55.7891ZM164.854 53.2988C165.538 53.2988 166.116 53.1076 166.588 52.7251C167.068 52.3426 167.426 51.8218 167.662 51.1626C167.906 50.5034 168.028 49.7588 168.028 48.9287C168.028 48.1068 167.906 47.3662 167.662 46.707C167.426 46.0397 167.068 45.5148 166.588 45.1323C166.116 44.7498 165.538 44.5586 164.854 44.5586C164.155 44.5586 163.561 44.7498 163.072 45.1323C162.592 45.5148 162.23 46.0356 161.986 46.6948C161.75 47.354 161.632 48.0986 161.632 48.9287C161.632 49.7588 161.75 50.5034 161.986 51.1626C162.23 51.8218 162.592 52.3426 163.072 52.7251C163.561 53.1076 164.155 53.2988 164.854 53.2988ZM172.345 42.2637H175.372V44.4609H175.519C175.746 43.7122 176.157 43.1263 176.751 42.7031C177.346 42.2799 178.025 42.0684 178.79 42.0684C179.246 42.0684 179.62 42.0928 179.913 42.1416V45.0225C179.775 44.9736 179.563 44.9289 179.278 44.8882C178.993 44.8475 178.725 44.8271 178.473 44.8271C177.903 44.8271 177.39 44.9492 176.935 45.1934C176.479 45.4375 176.121 45.7793 175.86 46.2188C175.6 46.6582 175.47 47.1546 175.47 47.708V55.5205H172.345V42.2637Z" fill="black"/>
</svg>
